/* XPM */
static char *result[] = {
/* columns rows colors chars-per-pixel */
"64 64 35 1 ",
"  c black",
". c #010101",
"X c gray1",
"o c gray2",
"O c #070707",
"+ c gray3",
"@ c #090909",
"# c gray4",
"$ c #0B0B0B",
"% c #0C0C0C",
"& c #111111",
"* c #131313",
"= c gray8",
"- c #151515",
"; c #161616",
": c gray9",
"> c #E7E7E7",
", c gray91",
"< c #E9E9E9",
"1 c #EFEFEF",
"2 c gray94",
"3 c #F1F1F1",
"4 c gray95",
"5 c #F3F3F3",
"6 c #F4F4F4",
"7 c gray96",
"8 c #F6F6F6",
"9 c gray97",
"0 c #F8F8F8",
"q c gray98",
"w c #FBFBFB",
"e c gray99",
"r c #FDFDFD",
"t c #FEFEFE",
"y c white",
/* pixels */
"tttttttttttttttttttttttttt@qttttttttttttttttttttttttttttttttttty",
"yyyyyyyyyyyyyyyyyyyyyyyyyy qyyyyyyyyyyyyyyyyyyyyyyyyyyyyyyyyyyyy",
"yyyyyyyyyyyyyyyyyyyyyyyyyy#3yyyyyyyyyyyyyyyyyyyyyyyyyyyyyyyyyyyy",
"yyyyyyyyyyyyyyyyyyyyyyyyyyw#15555557yyyyyy7yyyyyyyyyyyyyyyyyyyyy",
"yyyyyyyyyyyyyyyyyyyyyy55550X=======o255yyy#eyyyyyyyyyyyyyyyyyyyy",
"yyyyyyyyyyyyyyyyyy5558:==== 2555558$==&25y eyyyyyyyyyyyyyyyyyyyy",
"yyyyyyyyyyyyyyy758:==&25558 eyyyyyy7558:&y eyyyyyyyyyyyyyyyyyyyy",
"yyyyyyyyyyyyy58$=&2555yyyyy eyyyyyyyyyy55y eyyyyyyyyyyyyyyyyyyyy",
"yyyyyyyyyyyyy:=o25yyyyyyyyy eyyyyyyyyyyyyy eyyyyyyyyyyyyyyyyyyyy",
"yyyyyyyyyyyyy557yyyyyyyyyyy#4yyyyyyyyyyyyy eyyyyyyyyyyyyyyyyyyyy",
"yyyyyyyyyyyyyyyyyyyyyyyyyyy0#eyyyyyyyyyyyy eyyyyyyyyyyyyyyyyyyyy",
"yyyyyyyyyyyyyyyyyyyyyyyyyyyy eyyyyyyyyyyyy eyyyyyyyyyyyyyyyyyyyy",
"yyyyyyyyyyyyyyyyyyyyyyyyyyyy eyyyyyyyyyyyy eyyyyyyyyyyyyyyyyyyyy",
"yyyyyyyyyyyyyyyyyyyyyyyyyyyy eyyyyyyyyyyyy eyyyyyyyyyyyyyyyyyyyy",
"yyyyyyyyyyyyyyyyyyyyyyyyyyyy eyyyyyyyyyyyy eyyyyyyyyyyyyyyyyyyyy",
"yyyyyyyyyyyyyyyyyyyyyyyyyyyy#4yyyyyyyyyyyy eyyyyyyyyyyyyyyyyyyyy",
"yyyyyyyyyyyyyyyyyyyyyyyyyyyy0#eyyyyyyyyyyy eyyyyyyyyyyyyyyyyyyyy",
"yyyyyyyyyyyyyyyyyyyyyyyyyyyyy ryyyyyyyyyyy ryyyyyyyyyyyyyyyyyyyy",
"yyyyyyyyyyyyyyyyyyyyyyyyyyyyy ryyyyyyyyyyy ryyyyyyyyyyyyyyyyyyyy",
"yyyyyyyyyyyyyyyyyyyyyyyyyyyyy ryyyyyyyyyyy ryyyyyyyyyyyyyyyyyyyy",
"yyyyyyyyyyyyyyyyyyyyyyyyyyyyy ryyyyyyyyyyy ryyyyyyyyyyyyyyyyyyyy",
"yyyyyyyyyyyyyyyyyyyyyyyyyyyyy ryyyyyyyyyyy ryyyyyyyyyyyyyyyyyyyy",
"yyyyyyyyyyyyyyyyyyyyyyyyyyyyy ryyyyyyyyyyy ryyyyyyyyyyyyyyyyyyyy",
"yyyyyyyyyyyyyyyyyyyyyyyyyyyyy ryyyyyyyyyyy ryyyyyyyyyyyyyyyyyyyy",
"yyyyyyyyyyyyyyyyyyyyyyyyyyyyy#6yyyyyyyyyyy ryyyyyyyyyyyyyyyyyyyy",
"yyyyyyyyyyyyyyyyyyyyyyyyyyyyy8#tyyyyyyyyyy ryyyyyyyyyyyyyyyyyyyy",
"yyyyyyyyyyyyyyyyyyyyyyyyyyyyyy ryyyyyyyyyy#6yyyyyyyyyyyyyyyyyyyy",
"yyyyyyyyyyyyyyyyyyyyyyyyyyyyyy ryyyyyyyyyy8#tyyyyyyyyyyyyyyyyyyy",
"yyyyyyyyyyyyyyyyyyyyyyyyyyyyyy ryyyyyyyyyyy ryyyyyyyyyyyyyyyyyyy",
"yyyyyyyyyyyyyyyyyyyyyyyyyyyyyy yyyyyyyyyyyy yyyyyyyyyyyyyyyyyyyy",
"yyyyyyyyyyyyyyyyyyyyyyyyyyyyyy yyyyyyyyyyyy yyyyyyyyyyyyyyyyyyyy",
"yyyyyyyyyyyyyyyyyyyyyyyyyyyyyy yyyyyyyyyyyy yyyyyyyyyyyyyyyyyyyy",
"yyyyyyyyyyyyyyyyyyyyyyyyyyyyyy#7yyyyyyyyyyy yyyyyyyyyyyyyyyyyyyy",
"yyyyyyyyyyyyyyyyyyyyyyyyyyyyyy7#yyyyyyyyyyy yyyyyyyyyyyyyyyyyyyy",
"yyyyyyyyyyyyyyyyyyyyyyyyyyyyyyy yyyyyyyyyyy yyyyyyyyyyyyyyyyyyyy",
"yyyyyyyyyyyyyyyyyyyyyyyyyyyyyyy yyyyyyyyyyy yyyyyyyyyyyyyyyyyyyy",
"yyyyyyyyyyyyyyyyyyyyyyyyyyyyyyy yyyyyyyyyyy yyyyyyyyyyyyyyyyyyyy",
"yyyyyyyyyyyyyyyyyyyyyyyyyyyyyyy yyyyyyyyyyy#7yyyyyyyyyyyyyyyyyyy",
"yyyyyyyyyyyyyyyyyyyyyyyyyyyyyyy yyyyyyyyyyy7#yyyyyyyyyyyyyyyyyyy",
"yyyyyyyyyyyyyyyyyyyyyyyyyyyyyyy 5yyyyyyyyyyy yyyyyyyyyyyyyyyyyyy",
"yyyyyyyyyyyyyyyyyyyyyyyyyyyyyyy =yyyyyyyyyyy 7555557yyyyyyyyyyyy",
"yyyyyyyyyyyyyyyyyyyyyyyyyyyyyyt#8yy77755555t #-----$8755555557yy",
"yyyyyyyyyyyyyyyyyyyyyyyyyyyyyyy9954O++==--;5 .<,,,> ++-------@65",
"yyyyyyyyyyyyyyyyyyyyyyyyyyy75556O==++@87,,>*##-----#+@<,,,,,>O=;",
"yyyyyyyyyyyyyyyyyyyy5577774O====@6579976=-;67755555776=-----;855",
"yyyyyyyyyyyyyyyyy556=-++++=@65557yyy76*-655yyyyyyyyyyy5555555yyy",
"yyyyyyyyyyyyy5556=-@<>O++@67yyyyyyy4*-65yyyyyyyyyyyyyyyyyyyyyyyy",
"yyy5555555554*=-$<>O-;8777yyyyyyyy4=65yyyyyyyyyyyyyyyyyyyyyyyyyy",
"yyt*========;87> -;855yyyyyyyyyy54=6yyyyyyyyyyyyyyyyyyyyyyyyyyyy",
"yyy555557777,76=.65yyyyyyyyyyyy4*-6yyyyyyyyyyyyyyyyyyyyyyyyyyyyy",
"yyyyyyyy7776==-5 yyyyyyyyyyyyy4=65yyyyyyyyyyyyyyyyyyyyyyyyyyyyyy",
"yy555554*==-655t#8yyyyyyyyyy54=6yyyyyyyyyyyyyyyyyyyyyyyyyyyyyyyy",
"yt*====-6555yyyy6#yyyyyyyyy4*-6yyyyyyyyyyyyyyyyyyyyyyyyyyyyyyyyy",
"yy555555yyyyyyyye yyyyyyyy2=85yyyyyyyyyyyyyyyyyyyyyyyyyyyyyyyyyy",
"yyyyyyyyyyyyyyyye yyyyy552=8yyyyyyyyyyyyyyyyyyyyyyyyyyyyyyyyyyyy",
"yyyyyyyyyyyyyyyye yyyy4&=:8yyyyyyyyyyyyyyyyyyyyyyyyyyyyyyyyyyyyy",
"yyyyyyyyyyyyyyyye#0yy4+855yyyyyyyyyyyyyyyyyyyyyyyyyyyyyyyyyyyyyy",
"yyyyyyyyyyyyyyyyy4#yeo$yyyyyyyyyyyyyyyyyyyyyyyyyyyyyyyyyyyyyyyyy",
"yyyyyyyyyyyyyyyyye y4+0yyyyyyyyyyyyyyyyyyyyyyyyyyyyyyyyyyyyyyyyy",
"yyyyyyyyyyyyyyyyye 7+0yyyyyyyyyyyyyyyyyyyyyyyyyyyyyyyyyyyyyyyyyy",
"yyyyyyyyyyyyyyyyye #$yyyyyyyyyyyyyyyyyyyyyyyyyyyyyyyyyyyyyyyyyyy",
"yyyyyyyyyyyyyyyyye X0yyyyyyyyyyyyyyyyyyyyyyyyyyyyyyyyyyyyyyyyyyy",
"yyyyyyyyyyyyyyyyye Xyyyyyyyyyyyyyyyyyyyyyyyyyyyyyyyyyyyyyyyyyyyy",
"yttttttttttttttttw@%tttttttttttttttttttttttttttttttttttttttttttt"
};
