/* XPM */
static char *result[] = {
/* columns rows colors chars-per-pixel */
"64 64 35 1 ",
"  c black",
". c #010101",
"X c #020202",
"o c gray1",
"O c #060606",
"+ c #070707",
"@ c gray3",
"# c #090909",
"$ c gray4",
"% c #0B0B0B",
"& c #0C0C0C",
"* c gray5",
"= c #0E0E0E",
"- c #131313",
"; c gray8",
": c #151515",
"> c #E7E7E7",
", c #EAEAEA",
"< c gray92",
"1 c #ECECEC",
"2 c #F1F1F1",
"3 c gray95",
"4 c #F3F3F3",
"5 c #F4F4F4",
"6 c gray96",
"7 c #F6F6F6",
"8 c gray97",
"9 c #F8F8F8",
"0 c #F9F9F9",
"q c gray98",
"w c #FBFBFB",
"e c gray99",
"r c #FDFDFD",
"t c #FEFEFE",
"y c white",
/* pixels */
"ttttttttttttttttttttttttttttttttttttttttttt#qtttttttttttttttttty",
"yyyyyyyyyyyyyyyyyyyyyyyyyyyyyyyyyyyyyyyyyy0 qyyyyyyyyyyyyyyyyyyy",
"yyyyyyyyyyyyyyyyyyyyyyyyyyyyyyyyyyyyyyyyyy=O2yyyyyyyyyyyyyyyyyyy",
"yyyyyyyyyyyyyyyyyyyyyyyyyyyyyyyyyyyyyyyyyy 5$wyyyyyyyyyyyyyyyyyy",
"yyyyyyyyyyyyyyyyyyyyyyyyyyyyyyyyyyyyyyyyyy y eyyyyyyyyyyyyyyyyyy",
"yyyyyyyyyyyyyyyyyyyyyyyyyyyyyyyyyyyyyyyyyy y eyyyyyyyyyyyyyyyyyy",
"yyyyyyyyyyyyyyyyyyyyyyyyyyyyyyyyyyyyyyyyyy y eyyyyyyyyyyyyyyyyyy",
"yyyyyyyyyyyyyyyyyyyyyyyyyyyyyyyyyyyyyyyyyy y eyyyyyyyyyyyyyyyyyy",
"yyyyyyyyyyyyyyyyyyyyyyyyyyyyyyyyyyyyyyyyyy y eyyyyyyyyyyyyyyyyyy",
"yyyyyyyyyyyyyyyyyyyyyyyyyyyyyyyyyyyyyyyyyy 6$eyyyyyyyyyyyyyyyyyy",
"yyyyyyyyyyyyyyyyyyyyyyyyyyyyyyyyyyyyyyyyyyo+3yyyyyyyyyyyyyyyyyyy",
"yyyyyyyyyyyyyyyyyyyyyyyyyyyyyyyyyyyyyyyyy9o eyyyyyyyyyyyyyyyyyyy",
"yyyyyyyyyyyyyyyyyyyyyyyyyyyyyyyyyyyyyyyyy*$ eyyyyyyyyyyyyyyyyyyy",
"yyyyyyyyyyyyyyyyyyyyyyyyyyyyyyyyyyyyyyyyy 6 eyyyyyyyyyyyyyyyyyyy",
"yyyyyyyyyyyyyyyyyyyyyyyyyyyyyyyyyyyyyyyyy y eyyyyyyyyyyyyyyyyyyy",
"yyyyyyyyyyyyyyyyyyyyyyyyyyyyyyyyyyyyyyyyy y eyyyyyyyyyyyyyyyyyyy",
"yyyyyyyyyyyyyyyyyyyyyyyyyyyyyyyyyyyyyyyyy y eyyyyyyyyyyyyyyyyyyy",
"yyyyyyyyyyyyyyyyyyyyyyyyyyyyyyyyyyyyyyyyy 6 ryyyyyyyyyyyyyyyyyyy",
"yyyyyyyyyyyyyyyyyyyyyyyyyyyyyyyyyyyyyy445.@ ryyyyyyyyyyyyyyyyyyy",
"yyyyyyyyyyyyyyyyyyyyyyyyyyy44444444445:;;$$ ryyyyyyyyyyyyyyyyyyy",
"yyyy44444444444444444444445:;;;;;;;;;-34461$5yyyyyyyyyyyyyyyyyyy",
"yyyy:;:;;;;;;;;;;;;;;;;;;;-34444444444yyyy&6$tyyyyyyyyyyyyyyyyyy",
"yyyy44,44444444444444444444yyyyyyyyyyyyyyy y ryyyyyyyyyyyyyyyyyy",
"yyyyyy$tyyyyyyyyyyyyyyyyyyyyyyyyyyyyyyyyyy y$5yyyyyyyyyyyyyyyyyy",
"yyyyy7@tyyyyyyyyyyyyyyyyyyyyyyyyyyyyyyyyyy t7@tyyyyyyyyyyyyyyyyy",
"yyyyy$5yyyyyyyyyyyyyyyyyyyyyyyyyyyyyyyyyyy 4y@5yyyyyyyyyyyyyyyyy",
"yyyyy ryyyyyyyyyyyyyyyyyyyyyyyyyyyyyyyyyyy.#t7@tyyyyyyyyyyyyyyyy",
"yyyy7 ryyyyyyyyyyyyyyyyyyyyyyyyyyyyyyyyyyyX ry@3yyyyyyyyyyyyyyyy",
"yyyy%#tyyyyyyyyyyyyyyyyyyyyyyyyyyyyyyyyyyy& ry7;3yyyyyyyyyyyyyyy",
"yyyy 6yyyyyyyyyyyyyyyyyyyyyyyyyyyyyyyyyyyy6 yyy4;6yyyyyyyyyyyyyy",
"yyyy yyyyyyyyyyyyyyyyyyyyyyyyyyyyyyyyyyy6yy 6yyy4@yyyyyyyyyyyyyy",
"yyyy yyyyyyyyyyyyyyyyyyyyyyyyyyyy4444444@4y$$yyyy@4yyyyyyyyyyyyy",
"yyyy yyyyyyyyyyyyyyyyyyyy44444444;;;;;;;@;y6 yyyy6;4yyyyyyyyyyyy",
"yyyy yyyyyyyyyyy444444444;;;;;;;;444444464yy yyyyy4;6yyyyyyyyyyy",
"yyyy yyyyy444444;;;;;;;;;44444444yyyyyyyyyyy yyyyyy4@yyyyyyyyyyy",
"yyy4 64444;;;;;;444444444yyyyyyyyyyyyyyyyyyy 6yyyyyy@4yyyyyyyyyy",
"444;$$;;;;444444yyyyyyyyyyyyyyyyyyyyyyyyyyyy$$yyyyyy6;4yyyyyyyyy",
";;;46 4444yyyyyyyyyyyyyyyyyyyyyyyyyyyyyyyyyy6 6yyyyyy4;6yyyyyyyy",
"444yy yyyyyyyyyyyyyyyyyyyyyyyyyyyyyyyyyyyyyyy $yyyyyyy4$yyyyyyyy",
"yyyyy yyyyyyyyyyyyyyyyyyyyyyyyyyyyyyyyyyyyyyy  yyyyyyyy yyyyyyyy",
"yyyyy yyyyyyyyyyyyyyyyyyyyyyyyyyyyyyyyyyyyyyy  yyyyyyyy$46yyyyyy",
"yyyyt$7yyyyyyyyyyyyyyyyyyyyyyyyyyyyyyyyyyyyyr %7yyyyyyy5-#5yyyyy",
"yyyyy5$yyyyyyyyyyyyyyyyyyyyyyyyyyyyyyyyyyyyyr 8$yyyyyyyy3+:56yyy",
"yyyyyr yyyyyyyyyyyyyyyyyyyyyyyyyyyyyyyyyyyyyt$8 yyyyyyyyy85;%766",
"yyyyyr yyyyyyyyyyyyyyyyyyyyyyyyyyyyyyyyyyyyyy5#%7yyyyyyyy66> @@$",
"yyyyyt$7yyyyyyyyyyyyyyyyyyyyyyyyyyyyyyyyyyyyyr 8$yyy44443-;:$@@$",
"yyyyyy5$yyyyyyyyyyyyyyyyyyyyyyyyyyyyyyyyyyyyyt$8 743-;;;:5446666",
"yyyyyyr 7yyyyyyyyyyyyyyyyyyyyyyyyyyyyyyyyyyyyy5#$@::54444yyyyyyy",
"yyyyyyt#%yyyyyyyyyyyyyyyyyyyyyyyyyyyyyyyyyyyyyr 6@<4yyyyyyyyyyyy",
"yyyyyyy4 yyyyyyyyyyyyyyyyyyyyyyyyyyyyyyyyyyyyyr y5&yyyyyyyyyyyyy",
"yyyyyyyt$yyyyyyyyyyyyyyyyyyyyyyyyyyyyyyyyyyyyyt$7t yyyyyyyyyyyyy",
"yyyyyyyy6yyyyyyyyyyyyyyyyyyyyyyyyyyyyyyyyyyyyyy5$y$7yyyyyyyyyyyy",
"yyyyyyyyyyyyyyyyyyyyyyyyyyyyyyyyyyyyyyyyyyyyyyyr y5$yyyyyyyyyyyy",
"yyyyyyyyyyyyyyyyyyyyyyyyyyyyyyyyyyyyyyyyyyyyyyye ye yyyyyyyyyyyy",
"yyyyyyyyyyyyyyyyyyyyyyyyyyyyyyyyyyyyyyyyyyyyyyye ye yyyyyyyyyyyy",
"yyyyyyyyyyyyyyyyyyyyyyyyyyyyyyyyyyyyyyyyyyyyyyye ye$9yyyyyyyyyyy",
"yyyyyyyyyyyyyyyyyyyyyyyyyyyyyyyyyyyyyyyyyyyyyyye yy3$yyyyyyyyyyy",
"yyyyyyyyyyyyyyyyyyyyyyyyyyyyyyyyyyyyyyyyyyyyyyye yye yyyyyyyyyyy",
"yyyyyyyyyyyyyyyyyyyyyyyyyyyyyyyyyyyyyyyyyyyyyyye yye yyyyyyyyyyy",
"yyyyyyyyyyyyyyyyyyyyyyyyyyyyyyyyyyyyyyyyyyyyyyye yye yyyyyyyyyyy",
"yyyyyyyyyyyyyyyyyyyyyyyyyyyyyyyyyyyyyyyyyyyyyyye$yye yyyyyyyyyyy",
"yyyyyyyyyyyyyyyyyyyyyyyyyyyyyyyyyyyyyyyyyyyyyyyy6yye$yyyyyyyyyyy",
"yyyyyyyyyyyyyyyyyyyyyyyyyyyyyyyyyyyyyyyyyyyyyyyyyyyy6yyyyyyyyyyy",
"yttttttttttttttttttttttttttttttttttttttttttttttttttttttttttttttt"
};
