/* XPM */
static char *result[] = {
/* columns rows colors chars-per-pixel */
"64 64 33 1 ",
"  c black",
". c #010101",
"X c #020202",
"o c gray1",
"O c #070707",
"+ c gray3",
"@ c #090909",
"# c gray4",
"$ c #0B0B0B",
"% c #0C0C0C",
"& c gray5",
"* c #131313",
"= c gray8",
"- c #151515",
"; c gray9",
": c #E7E7E7",
"> c #EAEAEA",
", c #ECECEC",
"< c gray93",
"1 c #F1F1F1",
"2 c gray95",
"3 c #F3F3F3",
"4 c #F4F4F4",
"5 c gray96",
"6 c #F6F6F6",
"7 c gray97",
"8 c #F8F8F8",
"9 c gray98",
"0 c #FBFBFB",
"q c gray99",
"w c #FDFDFD",
"e c #FEFEFE",
"r c white",
/* pixels */
"eeeeeeeeeeeeeeeeeeeeeeeeeeeeeeeeeeeeeeeeeeeeeeeeeeeeeeeeeeeeeeer",
"rrrrrrrrrrr5rrrrrrrrrrrrrrrrrrrrrrrrrrrrrrrrrrrrrrrrrrrrrrrrrrrr",
"rrrrrrrrrrr#9rr5rrrrrrrrrrrrrrrrrrrrrrrrrrrrrrrrrrrrrrrrrrrrrrrr",
"rrrrrrrrrrr 9rr#9rrrrrrrrrrrrrrrrrrrrrrrrrrrrrrrrrrrrrrrrrrrrrrr",
"rrrrrrrrrrr qrr qrrrrrrrrrrrrrrrrrrrrrrrrrrrrrrrrrrrrrrrrrrrrrrr",
"rrrrrrrrrrr qrr qrrrrrrrrrrrrrrrrrrrrrrrrrrrrrrrrrrrrrrrrrrrrrrr",
"rrrrrrrrrrr qrr qrrrrrrrrrrrrrrrrrrrrrrrrrrrrrrrrrrrrrrrrrrrrrrr",
"rrrrrrrrrrr#2rr qrrrrrrrrrrrrrrrrrrrrrrrrrrrrrrrrrrrrrrrrrrrrrrr",
"rrrrrrrrrrr8#qr qrrrrrrrrrrrrrrrrrrrrrrrrrrrrrrrrrrrrrrrrrrrrrrr",
"rrrrrrrrrrrr qr qrrrrrrrrrrrrrrrrrrrrrrrrrrrrrrrrrrrrrrrrrrrrrrr",
"rrrrrrrrrrrr qr qrrrrrrrrrrrrrrrrrrrrrrrrrrrrrrrrrrrrrrrrrrrrrrr",
"rrrrrrrrrrrr#2r qrrrrrrrrrrrrrrrrrrrrrrrrrrrrrrrrrrrrrrrrrrrrrrr",
"rrrrrrrrrrrr8#r#2rrrrrrrrrrrrrrrrrrrrrrrrrrrrrrrrrrrrrr5rrrrrrrr",
"rrrrrrrrrrrrr q8#qrrrrrrrrrrrrrrrrrrrrrrrrrrrrrrrrrrrrr#qrrrrrrr",
"rrrrrrrrrrrrr%2r qrrrrrrrrrrrrrrrrrrrrrrrrrrrrrrrrrrrrr 2rrrrrrr",
"rrrrrrrrrrrr3<+5 qrrrrrrrrrrrrrrrrrrrrrrrrrrrrrrrrrrrrr&Oqrrrrrr",
"rrrrrrr33336;-+#O2rrrrrrrrrrrrrrrrrrrrrrrrrrrrrrrrrrrrr8 qrrrrrr",
"5555334-===*236 7#errrrrrrrrrrrrrrrrrrrrrrrrrrrrrrrrrrrr#4rrrrrr",
"#++#-=*23333rrr#7 wrrrrrrrrrrrrrrrrrrrrrrrrrrrrrrrrrrrrr6#errrrr",
"#++ :55rrrrrrrr6$@4rrrrrrrrrrrrrrrrrrrrrrrrrrrrrrrrrrrrrr wrrrrr",
"556$=47rrrrrrrrr 7#errrrrrrrrrrrrrrrrrrrrrrrrrrrrrrrrrrrr wrrrrr",
"rrr54-O2rrrrrrrr#7 wrrrrrrrrrrrrrrrrrrrrrrrrrrrrrrrrrrrrr#4rrrrr",
"rrrrr4@*4rrrrrrr6$ wrrrrrrrrrrrrrrrrrrrrrrrrrrrrrrrrrrrrr6#errrr",
"rrrrrr54#errrrrrrX wrrrrrrrrrrrrrrrrrrrrrrrrrrrrrrrrrrrrrr wrrrr",
"rrrrrrrr wrrrrrrrX wrrrrrrrrrrrrrrrrrrrrrrrrrrrrrrrrrrrrrr wrrrr",
"rrrrrrrr#2rrrrrrr% wrrrrrrrrrrrrrrrrrrrrrrrrrrrrrrrrrrrrrr wr333",
"rrrrrrrr6=2rrrrrr6 3rrrrrrrrrrrrrrrrrrrrrrrrrrrrrrrrrr3334 44-==",
"rrrrrrrrr4=4rrrrrr$@errrrrrrrrrrrrrrrrrrrrrrrrrr333334-===##*233",
"rrrrrrrrrr4+errrrr6 wrrrrrrrrrrrrrrrrrr333333334-====*23336 1rrr",
"rrrrrrrrrrr+3rrrrrr rrrrrrrrrrr33333333=========333333rrrrr rrrr",
"rrrrrrrrrrr5=3rrrrr rr353333333========333333333rrrrrrrrrrr rrrr",
"rrrrrrrrrrrr3=5rrrr 5r=+=======33333333rrrrrrrrrrrrrrrrrrrr rrrr",
"rrrrrrrrrrrrr3+rrrr##r3+3333333rrrrrrrrrrrrrrrrrrrrrrrrrrrr rrrr",
"rrrrrrrrrrrrrr+3rrr5 rr5rrrrrrrrrrrrrrrrrrrrrrrrrrrrrrrrrrr rrrr",
"rrrrrrrrrrrrrr5=3rrr 5rrrrrrrrrrrrrrrrrrrrrrrrrrrrrrrrrrrr5 rrrr",
"rrrrrrrrrrrrrrr3=5rr #rrrrrrrrrrrrrrrrrrrrrrrrrrrrrrrrrrrr##rrrr",
"rrrrrrrrrrrrrrrr3+rr  rrrrrrrrrrrrrrrrrrrrrrrrrrrrrrrrrrrr 5rrrr",
"rrrrrrrrrrrrrrrrr+5r# rrrrrrrrrrrrrrrrrrrrrrrrrrrrrrrrrrrr rrrrr",
"rrrrrrrrrrrrrrrrr5+r5 rrrrrrrrrrrrrrrrrrrrrrrrrrrrrrrrrrr5#rrrrr",
"rrrrrrrrrrrrrrrrrr+5r rrrrrrrrrrrrrrrrrrrrrrrrrrrrrrrrrrr+5rrrrr",
"rrrrrrrrrrrrrrrrrr5#r rrrrrrrrrrrrrrrrrrrrrrrrrrrrrrrrrrr#rrrrrr",
"rrrrrrrrrrrrrrrrrrw r rrrrrrrrrrrrrrr33333333333333333333>33rrrr",
"rrrrrrrrrrrrrrrrrre#5%rrrr33333333332*===================-=-rrrr",
"rrrrrrrrrrrrrrrrrrr4#,5332*=========-43333333333333333333333rrrr",
"rrrrrrrrrrrrrrrrrrrw ##==-43333333333rrrrrrrrrrrrrrrrrrrrrrrrrrr",
"rrrrrrrrrrrrrrrrrrrw +.433rrrrrrrrrrrrrrrrrrrrrrrrrrrrrrrrrrrrrr",
"rrrrrrrrrrrrrrrrrrrw 5 rrrrrrrrrrrrrrrrrrrrrrrrrrrrrrrrrrrrrrrrr",
"rrrrrrrrrrrrrrrrrrrw r rrrrrrrrrrrrrrrrrrrrrrrrrrrrrrrrrrrrrrrrr",
"rrrrrrrrrrrrrrrrrrrw r rrrrrrrrrrrrrrrrrrrrrrrrrrrrrrrrrrrrrrrrr",
"rrrrrrrrrrrrrrrrrrrw r rrrrrrrrrrrrrrrrrrrrrrrrrrrrrrrrrrrrrrrrr",
"rrrrrrrrrrrrrrrrrrrw 5 rrrrrrrrrrrrrrrrrrrrrrrrrrrrrrrrrrrrrrrrr",
"rrrrrrrrrrrrrrrrrrrw #$rrrrrrrrrrrrrrrrrrrrrrrrrrrrrrrrrrrrrrrrr",
"rrrrrrrrrrrrrrrrrrrw .6rrrrrrrrrrrrrrrrrrrrrrrrrrrrrrrrrrrrrrrrr",
"rrrrrrrrrrrrrrrrrrr2Oorrrrrrrrrrrrrrrrrrrrrrrrrrrrrrrrrrrrrrrrrr",
"rrrrrrrrrrrrrrrrrrq#5 rrrrrrrrrrrrrrrrrrrrrrrrrrrrrrrrrrrrrrrrrr",
"rrrrrrrrrrrrrrrrrrq r rrrrrrrrrrrrrrrrrrrrrrrrrrrrrrrrrrrrrrrrrr",
"rrrrrrrrrrrrrrrrrrq r rrrrrrrrrrrrrrrrrrrrrrrrrrrrrrrrrrrrrrrrrr",
"rrrrrrrrrrrrrrrrrrq r rrrrrrrrrrrrrrrrrrrrrrrrrrrrrrrrrrrrrrrrrr",
"rrrrrrrrrrrrrrrrrrq r rrrrrrrrrrrrrrrrrrrrrrrrrrrrrrrrrrrrrrrrrr",
"rrrrrrrrrrrrrrrrrrq r rrrrrrrrrrrrrrrrrrrrrrrrrrrrrrrrrrrrrrrrrr",
"rrrrrrrrrrrrrrrrrrq#5 rrrrrrrrrrrrrrrrrrrrrrrrrrrrrrrrrrrrrrrrrr",
"rrrrrrrrrrrrrrrrrrr2O&rrrrrrrrrrrrrrrrrrrrrrrrrrrrrrrrrrrrrrrrrr",
"rrrrrrrrrrrrrrrrrrrq 8rrrrrrrrrrrrrrrrrrrrrrrrrrrrrrrrrrrrrrrrrr",
"reeeeeeeeeeeeeeeeee0@eeeeeeeeeeeeeeeeeeeeeeeeeeeeeeeeeeeeeeeeeee"
};
