/* XPM */
static char *_c8e44e911bf44a8dc1395cb7ca7f152YIloioRaNPammdii[] = {
/* columns rows colors chars-per-pixel */
"64 64 204 2 ",
"   c #020202",
".  c #0A0102",
"X  c #000902",
"o  c #01020B",
"O  c #09010C",
"+  c #000809",
"@  c #09090B",
"#  c #120001",
"$  c #180002",
"%  c #14020B",
"&  c #020311",
"*  c #0B0013",
"=  c #000811",
"-  c #5A3218",
";  c #6D2E03",
":  c #6F2F0A",
">  c #742E03",
",  c #7A2E03",
"<  c #742F0A",
"1  c #792F0C",
"2  c #653404",
"3  c #6D3304",
"4  c #6D3803",
"5  c #6C340B",
"6  c #6D390B",
"7  c #643B09",
"8  c #733305",
"9  c #7B3302",
"0  c #723903",
"q  c #74330A",
"w  c #7A320A",
"e  c #723A09",
"r  c #7A3808",
"t  c #682F1B",
"y  c #6C2F12",
"u  c #7A2E15",
"i  c #702D12",
"p  c #603113",
"a  c #6C3113",
"s  c #6F3811",
"d  c #733313",
"f  c #7D3012",
"g  c #753B15",
"h  c #5E3A20",
"j  c #1C7E0D",
"k  c #167D07",
"l  c #1C7D11",
"z  c #1D7E19",
"x  c #157E15",
"c  c #217F0D",
"v  c #217D12",
"b  c #237C19",
"n  c #297F1E",
"m  c #802E09",
"M  c #852B06",
"N  c #81330D",
"B  c #803305",
"V  c #EC0D02",
"C  c #F40502",
"Z  c #FD0602",
"A  c #F50B02",
"S  c #FC0A03",
"D  c #FE050A",
"F  c #F50A0B",
"G  c #FC0A0A",
"H  c #EE1401",
"J  c #F61100",
"K  c #F91300",
"L  c #FA110B",
"P  c #F90811",
"I  c #FA0019",
"U  c #F40A13",
"Y  c #B75607",
"T  c #BC5603",
"R  c #B85802",
"E  c #BC560D",
"W  c #BD590A",
"Q  c #BE5512",
"!  c #C94D04",
"~  c #C64D0D",
"^  c #CB4F0E",
"/  c #C35404",
"(  c #CA5406",
")  c #C15800",
"_  c #C4540A",
"`  c #C9520C",
"'  c #C4580D",
"]  c #C9580C",
"[  c #D05208",
"{  c #C54F12",
"}  c #C45412",
"|  c #CA5111",
" . c #0D8503",
".. c #0D8A02",
"X. c #0D8A0B",
"o. c #148504",
"O. c #1A8405",
"+. c #138A03",
"@. c #1A8904",
"#. c #14840B",
"$. c #1B840C",
"%. c #148A0B",
"&. c #1B890C",
"*. c #0B9104",
"=. c #0F8610",
"-. c #158413",
";. c #1B8313",
":. c #158911",
">. c #1A8912",
",. c #1C8419",
"<. c #148A18",
"1. c #18881A",
"2. c #15861E",
"3. c #208607",
"4. c #21820D",
"5. c #208A0E",
"6. c #218415",
"7. c #238118",
"8. c #DDF000",
"9. c #EAEE02",
"0. c #F4ED03",
"q. c #F8ED05",
"w. c #E5F203",
"e. c #EDF603",
"r. c #EEF803",
"t. c #EDF80A",
"y. c #E7FB08",
"u. c #F5F404",
"i. c #FBF402",
"p. c #F3FA04",
"a. c #F9F905",
"s. c #F4F40B",
"d. c #F8F609",
"f. c #F4FA0A",
"g. c #F9F90F",
"h. c #EBF711",
"j. c #EBF812",
"k. c #F6F812",
"l. c #0988CF",
"z. c #1C88CC",
"x. c #1384D0",
"c. c #1786D8",
"v. c #178CD2",
"b. c #0A9BDF",
"n. c #0D95E7",
"m. c #0B98E7",
"M. c #0495ED",
"N. c #0B96ED",
"B. c #049BED",
"V. c #0B9BEC",
"C. c #1294ED",
"Z. c #129AEC",
"A. c #148EFB",
"S. c #0496F4",
"D. c #0A96F4",
"F. c #069AF6",
"G. c #0B9AF4",
"H. c #0496FB",
"J. c #0B96FC",
"K. c #049BFC",
"L. c #0B9AFB",
"P. c #1295F4",
"I. c #129AF4",
"U. c #1195FA",
"Y. c #1196FF",
"T. c #1196FD",
"R. c #129BFC",
"E. c #05A0E6",
"W. c #03A2EE",
"Q. c #09A0EB",
"!. c #00A0F2",
"~. c #05A1F6",
"^. c #04A1F3",
"/. c #0AA1F3",
"(. c #03A1FD",
"). c #0CA1FD",
"_. c #FFF6E9",
"`. c #F4FFEE",
"'. c #FFFDEA",
"]. c #FBFDEF",
"[. c #ECFFF3",
"{. c #FBF4F3",
"}. c #F5FFF4",
"|. c #FFFDF3",
" X c #FCFEF5",
".X c #F7F7FA",
"XX c #FEF6FF",
"oX c #F2FEFF",
"OX c #F5FFFE",
"+X c #F5FEFC",
"@X c #FAFFFA",
"#X c #FEFEFA",
"$X c #FFF9FF",
"%X c #FFFBFF",
"&X c #FDFAFE",
"*X c #F9FFFF",
"=X c #F9FEFE",
"-X c #FEFFFD",
";X c #FFFDFF",
":X c #FCFFFF",
">X c white",
",X c #FEFFFF",
"<X c #FEFCFE",
"1X c #FDFDFD",
/* pixels */
"c.x.z.  o       :X:X:X:X:X:X:X:X#X#X=X:X:X$X=X    G.K.J.F.F.D.G.F.F.F.F.F.L.F.F.o G.H.I.G.H.L.D.F.U.K.G.D.K.J.H.J.L.G.S.@ S.G.K.",
"l.z.    +X|.$X+X:X:X:X:X:X:X:X:X$X:X:X$X:X#X#X X& L.D.B.^.F.L.^.F.L.L.F.F.F.F.F.X X o L.F.G.S.F.F./.D.K.V.V.J.~.~.L.G.  X K.B.G.",
"v.& &X=X:X:X'.oX:X:X:X:X:X:X:X:X=X+X$X:X=X:X:X+X. F.F.J.J.G.K.L.F.F.D.F.F.F.F.L.D.).F.. X X X @ O K.G.F.g.j.e.u.p.u.B.% S.L.J.K.",
"x.  X o $X$X:X$X:X:X:X:X:X:X:X:X].}.&X:X@X$X|.:X  F.^.I.H.G.L.F.F.F.F.F.L.F.F.F.S.B.L.Z.~.F.J.N.m.K.F.U.u.f.u.a.f.d.K.L.W.L.S.L.",
". X |.oX X'.@X+X:X:X:X:X:X:X:X:X:XX   #X=X&X:X+X. J.B.F.F.F.F.D.F.L.F.D.F.F.F.F.J.J.L.P.S.K.I.F./.D.).d.r.k.a.t.u.t.V.Y.F.L.. X ",
"  @XoX=X+X:X$X:X:X:X:X:X:X:X:X:X$X$X  #X=XoX#X$X& Z.(.H.J.F.F.J.F.F.F.H.F.F.F.F.L.B.W.K.R.F.F.F.K.L.J.t.r.r.i.a.p.k.L.J.F.F.L.F.",
"  . &X#X{.:X:X X:X:X:X:X:X:X:X:X X:X:XX $X X+X  b.K.M.F.G.S.G.F.F.F.F.F.F.F.J.F.S.L.R.L.S.D.L.F.J.J.S.t.a.s.k.u.a.d.S.Q.G.H.B.G.",
"K.D.X &X:X:X. @X:X:X:X:X:X:X:X:X].oXXX  :X=Xb.K.K.L.G.K.J.(.V.K.L.F.L.F.F.F.L.F.K.V.K.K.V.~.G.K.X F.Q.K.u.g.q.y.f.S.~.G.G.L.K.F.",
"(.F.X     X   =X$X:X|.:X=X=X:X:X:X$X X  #X  ~.J.L.D.F.L.~.B.G.J.n.F.D./.S.^.B.K.H.  F.K.P.L.K.X + F.K.Y.p.a.r.d.K.I.K.V.F.Z.J.D.",
"N.I.L.F.U.C.  X :X=X].:X$X X|.:X=X+X=X.   X F.G.B./.L.(.N.~.F.K.J.~.K.S.R.H.F.. .     P.L.M.F.. S.~.P.S.B.P.J.G.J.H.L.F.F.H.K.~.",
"L.K.N.S.L.K.Z.S.^.  o  X+XXX:X X XX X o   U.S.U.F.S.S.J.J.J.F.P.K.K.G..   X 9 1       o H.Z.X J.D.F.J.(.~.F.K.S.K.V.L.P.X & I.W.",
"L.H.W.F.L.F.J.G.F.K.F.B.L.o     D.D.N.F.D.Z.~.K.~.S.G.Z.F.~.F.S.D.I.B.    8 8 , 3 . . . X X J.D.L.V.H.J.H.(.F.O L.B.B.~.K..   O ",
"G.F.D.).S.F.K.L.J.R.U.I.K.L.S.^.F.F.G.K.L.K.G.V.M.I.~.K.U.S.J.L.F.    w 4 2 q d d ; .   X J.G.J.K.G.F.Z.K.L.N.X X R.F.U.F.F.K.F.",
"H.J.G.L.F.~.(.K.F.J.K.B.E.F.T.D.F.K.L.F.K.L.L.F.L.(.S.L.K.G.^.      3 d m q 8 8 3 8 q         K.B.L.D.F.F.K.D.N.+ P.F.U.S.V.F.G.",
"G.~.S.F.L.H.V.L.L.S.K.D.K.F.K.G.I.~.G.V.F.G.H.G.D.F.F.L.  . 3 9 1 0 9 ; 9 w > w 8 q , B .     F.K.S.G.L.S.I.Z.K.o K.F.G.K.(.F.F.",
"G.K.G.D.D.K.V.F.B.L.G.G.H.G.F.F.F.F.J.F.S.(.J.V.G.F.~.  u 9 2 q w 3 q 0 q i 9 2 8 0 u < 6   o . F.J.V.F.).M.(.J.o m.F.K.D.V.L.L.",
"F.L.F.F.L.F.F.F.F.J.F.B.I.F./.F.J.D.L.F.J.V.D..     . 0 8 8 9 9 q 8 q 2 5 8 8 8 8 3 w > w a # X G.B.F.G.D.~.K.G.& n.K.C.F.K.D.F.",
"F.F.F.F.F.F.F.L.J.S.F.L.H.K.J.G.K.).K.K.G.X &   . q s ; q d 8 w 0 q 8 4 3 8 q > < w 2 r 9 q - # o + K.D.L.H.Y.G.n.(.S./.K.J.D.G.",
"F.F.F.F.F.F.F.F.F.F.~.F.D.L.J.K.P.V.S.L.S.  . 3 u q 3 8 3 9 > q < 8 3 q q 8 q < < 8 ; 8 8 0 q a .     . U.F.L.F.K.S.I.K.S.L.K.F.",
"D.F.F.L.F.F.L.F.B.L.F.W.G.F.K.F.F.B.).H.V.. . q , , # 4 9 8 0 d 9 q q 8 8 q q 9 9 w 8 8 8 8 , w 3   o   K.~.B.^.C./.F.J.G.D.L.G.",
"F.F.F.F.F.F.F.F.L.L.D.G.J.L.Q.P.J.K.m.S.  8 > w 5 7 - 8 d , q 2 q 8 w 8 q 8 8 8 3 8 < < 8 0 w > q 8   .   o G.G.F.K.F.G./.S.L.B.",
"F.F.F.F.L.F.L.F.S.K.L.F.L.G.S.K.K.K..   1 2 9 . 2 9 5 9 8 q > 5 < 8 8 q 8 < q < 8 q 9 < q ; 8 q > , 9 3 & . S.L.K.J.J.S.F.^.K.~.",
"F.F.F.F.F.F.F.S./.D.L.K.G.S.(.n.F.G.. 5 , N 5 8 , , 2 9 8 8 q 9 8 q 8 q 8 8 q 8 8 q w 8 w < q 3 0 9 > <   o /.S.G.D.F.L.L.F.S.J.",
"L.J.F.L.F.F.L.F.F.D.K.F.P.K.n.o     9 5 4 > q q d , 5 9 < 0 < 9 3 8 q 8 q 3 8 8 q 8 8 3 q , q 8 > q 2 B 3 . S.L.F.G.F.L.B.F.R.S.",
"F.F.F.S.L.F.F.F.G.K.G.V.S.  o # 8 1 3 , , 9 : 5 8 8 8 8 8 8 8 8 q ; w 8 9 8 3 q r 3 8 8 8 q 3 5 6 , , 6 6 . S.K.F.F.F.F.L.F.D.F.",
"F.L.F.L.F.F.F.F.D.K.N.o     X 8 9 5 + 8 8 q 0 M < 3 8 < 8 < < 8 9 q ; 5 5 8 9 , 3 < 8 < 4 8 0 9 w ; w 1 8 < I.H.L.F.F.F.F.F.F.F.",
"F.F.F.F.F.F.F.F.F.D.    . % 2 , 0 > i > e > 0 8 8 8 8 8 8 8 8 8 > 9 3 3 2 6 2 e 2 < 9 t 0 8 8 2 3 7 > 3 3 w G.F.F.F.F.F.F.F.F.L.",
"F.L.F.F.F.L.F.D.F.. o   : 9 9 5 8 3 r w ; 3 5 u 8 8 8 8 8 8 8 8 g ; r 9 5 t .   .   X .     X . X     .   . F.F.F.F.F.L.L.F.F.F.",
"F.F.F.F.L.F.F.H.F.F.o o X     X   .     *   o                         X X X           .         . .       o F.H.F.L.L.F.F.F.L.F.",
"S.L.F.F.F.F.F.L.J./.N.  .   . . O     X       X   .               .             & # V F Z       S A G S     L.J.F.F.S.F.F.F.F.F.",
"F.F.F.F.F.F.F.F.B.F.G.  A A D Z F Z D Z Z S Z Z Z S S S Z A S S S S S Z S S S S S S S S Z S S J F U C S     F.G.F.F.F.F.F.F.F.F.",
"D.F.F.L.F.L.F.F.L.F.J.  G Z F J   & X # &   . F S C S S S Z Z S S C G S S G S S S S A D F D S S S C S D   . F.S.L.F.F.L.F.F.F.L.",
"H.F.F.L.F.L.F.F.D.J.  o A S A D :X$X#X  &X@X  S Z S S S S S S S D Z A A S A S S S S D S S S S S Z L C S   X S.J.F.L.F.F.F.F.F.F.",
"L.F.F.F.F.F.F.D.L.B.*   Z S S F :X:X#X  :X+X. A S S S S S S S S S S S D Z S Z F A A A S S A A S F Z F A     F.F.F.F.F.L.F.L.F.F.",
"F.F.F.F.F.F.F.F.S.(.. X A Z S J :X:X X  .X@X  S S S S Z Z S S D S Z A S A D S S S D D S S S D S S J S I   $ F.S.F.F.F.F.F.F.L.S.",
"F.D.F.F.L.F.F.F.K.^.    S S S   :X:X X  =X#X. F S S S S S S S S A Z S S S S A Z S S S S S S S S S S A # X O F.^.F.L.F.F.F.F.D.F.",
"F.L.F.F.F.F.F.F.F.D.O . S A D o   . @X  o @X  S S S S S S S Z S Z Z D S S Z H S Z S Z S S Z S Z D S Z X   o L.V.L.F.D.H.F.F.F.F.",
"F.F.F.F.L.F.F.L.R.H.P.X S S S   :X&X        . C S D S S S S S S A S S S A H { | _ _ / _ / _ _ _ S S A     . H.^.F.F.F.F.L.F.F.L.",
"F.F.F.L.F.F.F.F.D.W.S.X C S D   :X&X#X:X  =X. S S S S S S S S S S S S D Z S ^ ^ _ _ _ _ ` _ _ _ A Z S .     K.F.F.F.L.F.F.F.F.F.",
"L.F.F.F.F.F.L.F.G.S.K.. S S D   :X:X X#X  @X  S S S S Z Z S S S S A C S S S ' R _ _ _ _ _ _ _ ] Z F S     . J.F.F.F.F.F.F.L.F.F.",
"J.S.D.L.J.V.F.K.F.L.  . F Z G S       @XX =X. G Z Z A J F S Z A A S S A Z Z / W ` E _ | _ / / E A S A .   X F.J.L.K.G.L.J.S.F.B.",
"S.).B.L.F.F.D.F.F.L.    A S Z A S D X *   o . A S A S Z S Z Z A S Z S S A Z T ` / T ! ] ~ _ } / D D   .     K.Y.S.K.G.U.L.^.H.L.",
"F.~.F.F.F.F.).K.G.S.  . U Z S A Z Z A Z S G Z A Z S S Z A S A S S S G S A S ] _ ` ] } R     . / S S o   O X G.B.R.V.K.(.B.B.G.J.",
"V.F.J.L.F.Y.G.F.J.L.o   X A D A Z S S G S A G A S S Z Z A S A S A Z A S D A [ _ _ ( T | X   X _ D K P     . U.V.N.K.N.D.K.H.(.J.",
"R.L.V.D.B.~.S.W.B.F.F.X   Z S S S C S F G Z Z G S A S Z S S S S A A Z Z S V T } E | ` `   = . ` Z S F   J.S.L.H.<.S.L.V.L.V.F.G.",
"F.F.F.F.K.F.R.U.F.J.U.o O G S C S F S A C S A Z S S S S S Z S A D S Z J Z G ] ~ / Q ) ` T ` | W S S S O N.).B.-.V.K.L.B.J.R.K.S.",
"G.L.V.F.I.U.K.G.F.K.F.o   G Z J A S Z L A A G A A O.Z A A A S Z A $.S A D S Y @.{ @.! / / E ~ / G A S   K.G.-.F.F.J.G.^.^.J.D.Q.",
"&X}.j.`.$X}.J.K.L.G.^.. . A S Z D S Z A D D D S S #.S S S S A S O.3.F o.D A _ | }  .] } / Q ( ( A Z S . L.F.@.L.>.F.#.%.K.F.J.K.",
":X  u.u.9.+XJ.H.F.+. .X   A .   Z S C S Z S G Z #.$.F G Z C A Z $.G $.#.D   o %.  #.  .     . X Z S o   X j #.$.%.@.#.$.H.^.%.. ",
"_.w.XXy.. . . +.O.;.,.$.        X X.o   . X   .   @.@.o.X.    .   X &.    .   . . ..-.    .   o X   o X   ,.. X.+.  ;.O.%.-.#.&.",
"o r.8.q.i.X   o $.%.j ;.x +.  #.  . . .   X     +.-.$.@.. #.o .   $.o.o     oX+X%.$.  :X$X+X}.$X$X#X:X  . X $.#.XX&X`.c #.@.#.$X",
"  w.O % 9.p.u.9.+X X:X@.$.#.:X#X X:X#.:X+X=XXX=X:X&X}.X.$X X X=X$X#X X>.-.O.&X|.l +.=X$X:X$X X#X+X$X#X+X$X2.$. X@.x #X[.`.+.X.:X",
"O e.w.0.s.o 0.r.|.$X}.+.6.-.O.X.c  X+.$X$X X=X|.:X&X@.@.j $.$X+X$X Xl %.@.,.:X&X&.#.@X:X$X:X:X$X:X$XoX|.$X&X}.&.+.$.:X:X:X;.|.#X",
"`.. w.d.w..   o :X$X=Xo.+.@.{.$.%.#.%.X.$.:X#. X#X=X-.#.3.;.:X@X:X&X$.+.=XXX+X+.;.j $.-.`.:X$X&X=X X#X|.$X XX.-.:X:X#.#X$X:X;.:X",
"$X$XX   X X  XXX:X$X|.#Xc :Xo.%.-.%.,.;.|.&.v  XO.$. Xo.1.#.@.#X XO.5.#.$.#X:X#.-.+.O.:X$X[.:X#X$X&X@X@X.X-.@.=.+.$.+X:X#X=X#X+X",
"}.:X|.&X&X. ].:X X%.:X$X#X+X:X@X Xj 6. X*.#.%.=.$.-.>.%.$.}.+.;.X.;.;.].+X@X$XO.%.+.;.%.O.&.&X@X+X:X}.&.}.;.O.@.z X.$.#X=X=X#X:X",
":X:X:X$X#X=X  $X$X:X:X#.:X@X$X#X:XO.>.-.+X$X$X%.$.%.-. Xc :X@.j ..+.$.#X$X@X:X$X#.4.#.;.$.#.$X}.@X#X=X$X..%. X4.6.j +X:X&X#X$.$X",
" X$X`.:X@X$X  }.}.@X+.O.#X:X}.:X$.$.@X:X..+.+.b #.$.$X:X X$X..%.7.$.#X X:X$X}. X}.+.>...$.&. X,.j .X#X;.:X#.;.#...$X@.@Xj =X+.#X",
"#X$X X:X=X#X* #X:X$X@.;.j #.:X X$X:X6.+.O.-.#.`.}.&X;.#.*.+.%.$.:X&X+X$X$X:X:X@X$X&X#.%.O.#.%.#.+.+.#.k $.:X%.#.$.`. X&X:XO.#X&X",
"#X@X#X$X:X$X  #X#X X+X#.+.%.j :X@X$X&X#X:Xz $XXX:X X Xl @.x 7.}.$X#X X:X&X}.$X$X:X:Xb $. .:.O.;.-.;.+.@.}.$X-.}.oX,.$X;. .X.%.$X",
"$X$X#.:X@X+X.  X:X$X$X:X..:X@.#.`.;.}.&X:X$X$X`.|.$X .%.:.%.&X X X&...$X=X&X:X&XXX X@X#.>.+.X.o.,...@X;.|.;.v #.4.+X$.+.$X+.:X}.",
":X X;.k &.}.  :X X:X#.$X`.=X;.=X$.O. XoX:X X#X&X}.XX$X}. Xb $X X..+.$X$X}.=X$X`. X$.&X6.+Xj #X$X;.#X$X|.$XX.$.%.}.XX$X+X$X:X}.=X",
"@X X}.:X$X:X$X:X:X#X}.z ;.$X$X#X6.}.O.:X}.#X$X:X:X@X=X$X}.$X}. X7.}.$X$X#X X$X}.:XXX X . X@X=X$X$X X+X$X&X@X=X;.#X$X X X$X$X$X$X",
":X=X#X#X:X:X=X@X:X:X$.#X+.:X#X:X:X$X@X:X&X:X}.#X+X$X|.:X}. X$X$X+X:X#X#X}.:X=X$X:X@X|.;.;.&X}.&X:X+X X:X@X$X`.:X=X@X$X}..X$X}.#X"
};
