/* XPM */
static char *aefaa541384c4df08206718c39d65449aIaPvmFnhh8PdyV1[] = {
/* columns rows colors chars-per-pixel */
"64 64 126 2 ",
"   c #030200",
".  c #0A0204",
"X  c #000800",
"o  c #040509",
"O  c #110100",
"+  c #533F0A",
"@  c #663E04",
"#  c #6C3E02",
"$  c #633D0B",
"%  c #633F15",
"&  c #3B7E02",
"*  c #347E0C",
"=  c #3B7F0D",
"-  c #307D17",
";  c #4D4A04",
":  c #4F4E0D",
">  c #554501",
",  c #5C4502",
"<  c #554B03",
"1  c #5C4A03",
"2  c #55450B",
"3  c #5C450A",
"4  c #554B09",
"5  c #5C490B",
"6  c #545006",
"7  c #5C4412",
"8  c #5D4B13",
"9  c #564318",
"0  c #5D461C",
"q  c #5E4B1B",
"w  c #5D531A",
"e  c #624503",
"r  c #694403",
"t  c #624A03",
"y  c #6A4901",
"u  c #62440C",
"i  c #69440B",
"p  c #62490A",
"a  c #694A0C",
"s  c #70430A",
"d  c #64510C",
"f  c #644615",
"g  c #6E4615",
"h  c #634C15",
"j  c #694A13",
"k  c #67451C",
"l  c #694719",
"z  c #634C1C",
"x  c #6A4B1D",
"c  c #73481E",
"v  c #635116",
"b  c #64511C",
"n  c #6B521C",
"m  c #437E02",
"M  c #437E0A",
"N  c #417F10",
"B  c #457D1E",
"V  c #5E4C23",
"C  c #5C4728",
"Z  c #5C4C29",
"A  c #575324",
"S  c #5D5124",
"D  c #5A512A",
"F  c #594E30",
"G  c #624722",
"H  c #644B23",
"J  c #694C23",
"K  c #644729",
"L  c #684728",
"P  c #634B2B",
"I  c #6B4B2B",
"U  c #645124",
"Y  c #695224",
"T  c #2D8403",
"R  c #2E8A04",
"E  c #2F8508",
"W  c #348503",
"Q  c #3B8403",
"!  c #348A02",
"~  c #3B8A03",
"^  c #35850B",
"/  c #3B840B",
"(  c #348A0A",
")  c #3A890A",
"_  c #2C9000",
"`  c #368513",
"'  c #3C8312",
"]  c #3C8B12",
"[  c #438403",
"{  c #4A8503",
"}  c #438902",
"|  c #43840B",
" . c #4A810A",
".. c #41890B",
"X. c #418312",
"o. c #488712",
"O. c #F6AD00",
"+. c #FEAE00",
"@. c #FBAF0B",
"#. c #EEB302",
"$. c #EDBB03",
"%. c #F4B402",
"&. c #FBB402",
"*. c #F4BA01",
"=. c #FBB901",
"-. c #F5B40B",
";. c #FCB40A",
":. c #F6B90A",
">. c #FBB909",
",. c #F4B611",
"<. c #FFB611",
"1. c #F8BA11",
"2. c #F0C006",
"3. c #FFFDDF",
"4. c #F0FFE7",
"5. c #FCFFE6",
"6. c #F5FFEE",
"7. c #FDFEED",
"8. c #EBFFF3",
"9. c #ECFFFC",
"0. c #FFF5F5",
"q. c #F5FFF4",
"w. c #FDFEF4",
"e. c #FEF6FE",
"r. c #F5FFFE",
"t. c #FEFEFE",
/* pixels */
"t.t.t.t.t.t.t.t.t.t.t.t.t.t.t.t.t.t.t.t.t.t.t.t.t.t.t.w.w.t.t.t.t.t.t.t.t.t.t.t.w.t.r.w.t.w.t.t.t.t.t.t.t.t.t.t.t.t.t.t.t.t.t.t.",
"t.t.t.t.t.t.t.t.t.t.t.t.t.t.t.t.t.t.t.t.t.t.t.t.w.t.t.w.r.t.r. .t.t.t.t.t.t.t.t.t.t.t.t.t.r.w.e.t.t.t.t.t.t.t.t.t.t.t.t.t.t.t.t.",
"t.t.t.t.t.t.t.t.t.t.t.t.t.t.t.t.t.t.t.t.t.t.t.t.t.t.w.t.e.t.Q Q t.t.t.t.t.t.t.t.t.t.t.7.e.t.t.t.t.t.t.t.t.t.t.t.t.t.t.t.t.t.t.t.",
"t.t.t.t.t.t.t.t.t.t.t.t.t.t.t.t.t.t.t.t.t.t.t.t.r.t.t.e.t.m ! ! t.t.t.t.t.t.t.t.w.e.r.t.r.r.t.t.t.t.t.t.t.t.t.t.t.t.t.t.t.t.t.t.",
"t.t.t.t.t.t.t.t.t.t.t.t.t.t.t.t.t.t.t.t.t.t.t.t.t.t.r.t.t.r.T ) t.t.t.t.t.t.t.t.t.t.r.t.= } w.t.t.t.t.t.t.t.t.t.t.t.t.t.t.t.t.t.",
"t.t.t.t.t.t.t.t.t.t.t.t.t.t.t.t.t.t.t.t.t.t.t.t.t.e.5.t.^ w.t.W t.t.t.t.t.t.t.t.t.t.t.e.r.& w.t.t.t.t.t.t.t.t.t.t.t.t.t.t.t.t.t.",
"t.t.t.t.t.t.t.t.t.t.t.t.t.t.t.t.t.t.t.t.t.t.t.t.t.t.t.t.W W X.0.t.t.t.t.t.t.t.t.t.w.t.e.t. .t.t.t.t.t.t.t.t.t.t.t.t.t.t.t.t.t.t.",
"t.t.t.t.t.t.t.t.t.t.t.t.t.t.t.t.t.t.t.t.t.t.t.t.t.t.| Q ! ~ W r.t.t.t.t.t.t.t.t.t.t.r.t.^ ! t.e.t.t.t.t.t.t.t.t.t.t.t.t.t.t.t.t.",
"w.t.r.t.q.w.r.t.t.e.r.t.w.t.t.e.e.w.t.r.t.w.r.t.t.t.w.t.t.t.e.w.t.t.t.t.t.w.e.t.t.t.t.t.Q & r.t.e.w.t.t.t.t.t.t.t.w.e.t.t.r.r.t.",
"e.t.t.t.t.t.e.t.t.r.7.t.t.t.r.r.9.t.w.t.e.t.t.t.w.q.' ! ! ^ t.r.e.t.e.t.r.t.t.r.t.w.t.^ ^ r.t.t.t.t.t.t.t.e.t.t.e.t.r.t.7.e.t.t.",
"w.t.t.t.e.e.w.t.r.} w.e.w.w.e.} t.t.r.w.t.t.t.w.e.t.W W w.e.t.t.r.t.t.w.t.t.t.t.w.t.^ W } 8.5.t.t.w.t.t.w.t.w.t.t.t.t.w.t.t.e.t.",
"t.t.t.e.r.q.t.Q } e.r.r.t.t.) W t.t.t.t.e.t.t.t.t.t.W ~ t.t.e.q.w.t.t.t.t.t.e.t.t.6.) W Q [ t.0.t.t.t.t.t.t.t.e.t.! W ^ e.r.r.r.",
"t.t.t.t.r.r.B W ! | 6.t.t.t.W ' Q w.t.e.t.t.t.t.w.& ~ w.t.r.w.t.t.t.e.r.5.t.t.q.t.e.[ r.e.t.r.t.r.t.t.r.r.t.t.t.Q 6.] w.t.t.t.e.",
"t.t.7.r.r.t.w.! Q ^ w.t.t.t.r.! [ w.t.r.t.w.t.r.r./ ! Q w.e.t.t.w.r.| t.q.w.r.e.t.r.W Q } t.r.t.t.t.w.r.t.t.t.4.t.~ & q.e.t.q.t.",
"t.t.t.t.w.e.t.Q Q q.e.e.r.w.t.Q 9.t.t.t.0.w.t.t.r.^ ! t.t.r.I z L H 8 X.t.t.e.t.t.W t.r.t.e.r.w.r.t.t.t.w.e.r.B ^ W t.t.q.t.t.t.",
"w.r.0.t.t.e.w.^ E t.t.t.t.t.t.t.W t.t.r.t.t.e.t.t.t.e.t.e.w.z z l x w z x q t.t.t.W ~ ^ w.t.t.t.t.t.t.t.t.e.w.~ Q t.t.w.t.t.t.t.",
"w.e.t.w.t.t.e.t.w.^ t.t.t.e.t.e.r.t.t.t.w.D z l b 0 Y z z z J x z J z z z z f z H z b P 7.e.t.t.t.e.t.r.t.t.& ! Q B 4.t.e.t.t.t.",
"t.t.r.t.t.t.q.! ( / e.r.t.7.t.w.t.5.D U G H q z q Y C h z z b q J z z z H J Y z f Y K K z S F 7.w.t.w.e.r.t.' Q q.r.t.t.t.w.t.t.",
"t.t.r.t.r.t.q.B ! ! w.t.t.e.r.w.w.Z v i x x z w x H h z z z U w z z z H z H z H q z h n z z z b w.r.w.t.w.W W _ e.e.t.t.t.t.e.t.",
"w.e.t.t.e.t.w.! / Q ! t.e.t.r.t.K Y z H L z H z x f z h U K J z z K P z h z H z H b h f J J J f z t.r.t.^ { ! e.t.w.t.r.t.w.t.t.",
"t.t.t.t.t.t.e.t.! / t.e.9.t.t.t.x z z V Y 8 z L z U C z z z f x v b f b h U z z q z H H U z H C J t.t.= Q W / t.t.t.r.r.t.t.t.t.",
"r.t.r.e.w.w.t.` [ t.w.t.t.q.e.U l h b f z z z H P t.w.w.V Y I C v q U b q 8 H H H H H z z z z z 8 w W ^ W w.r.w.t.t.w.t.t.t.t.t.",
"t.t.t.t.w.r.t.q.t.T ) t.t.t.w.v q n 8 J I J h v z S 7.A b f v w P e.e.K b I K z z z U H b h b f I l b | r.w.t.e.t.t.t.t.t.w.t.w.",
"t.e.w.t.t.r.0.t.' ~ w.e.t.t.k z P q H G J J z z j H z V z H J x w V U z h h z z z b z z H H H x G h z ^ t.t.t.t.t.r.t.r.t.t.t.e.",
"t.q.w.e.t.r.t.r.} Q t.Q t.t.J V J H J q H H G a z z V w H H l x H H z H j z K w x q b g H V l x V l U e.t.t.t.t.t.t.t.t.t.t.t.t.",
"t.t.t.t.t.t.7.w.W = ! Q t.%.%.&.=.$.t.Z J J x A J x z l z q q z z z h H H U H v H I 8 H K S D H a w D t.7.t.t.t.t.t.t.t.t.t.t.t.",
"t.t.r.t.t.e.t.t.t.! R ! t.=.&.*.*.%.%.&.O.=.%.%.*.&.;.+.;.;.:.%.=.%.&.:.*.%.&.;.O.*.%.=.c z h H # 7 w.t.w.e.t.t.t.t.t.t.t.t.t.t.",
"w.t.w.t.t.e.t.7.e.t.) Q e.&.*.%.-.*.&.&.&.;.*.%.*.%.%.&.%.+.&.&.%.;.=.O.=.;.&.&.>.-.=.%.*.&.=.+.:.t.e.t.r.r.t.t.t.t.t.t.t.t.t.t.",
"t.t.r.^ t.t.t.r.t.~ Q ~ q.e.>.&.%.=.#.&.*.*.@.;.%.&.:.%.:.>.*.%.&.%.&.%.*.#.:.%.%.;.%.*.%.=.-.*.*.e r.w.e.r.t.w.t.t.t.t.t.t.t.t.",
"t.e.Q ~ & 7.e.r.t.t./ Q : 2 s , @ p > t y + 1 w.f *.O.=.# &.=.O.%.%.=.&.-.=.@.&.&.&.O.%.:.+.%.%.-.> t.t.w.e.t.t.t.t.t.t.t.t.t.t.",
"r.t.w.r.! r.t.t.e.r.W ..^ t., t 1 2 i 3 , h < 3 r #.=.&.f 2 < i > p 5 1 > e # *.*.*.e e.3 e , t r e t.t.t.t.t.t.t.t.t.t.t.t.t.t.",
"w.t.t.t.t.e.t.r.t.w./ ! Q e e 2 , p , u u > t 3 > %.&.%.3 p ; . .         4 # $.:.O.2.@ e u , p > 7 e.r.t.t.t.t.t.t.t.t.t.t.t.t.",
"t.t.t.t.w.t.t.t.e.r.r.Q 4 t.> i r < , 3 , t , 1 3 ;.%.%.1 3 a   . o   . 5 e 5 %.%.%.=.> r 5 , e 3 e t e.t.e.t.t.t.t.t.t.t.t.t.t.",
"t.t.w.t.e.w.t.t.w.0.w.}  .> t + 3 p , 4 5 e > e Q *.+.*.@ t 2 4   o     , r > ;.&.&.%.1 , 5 > u 5 1 5 e t.5.q.t.t.t.t.t.t.t.t.t.",
"t.t.t.t.t.e.t.t.t.t.t.w.r.f , 5 e 1 e r r + d , , *.&.;.1 > , r 1   p p 1 e 1 3 %.;.%.5 r > p e e 1 @ < t.t.t.e.t.t.t.t.t.t.t.t.",
"t.t.t.r.w.t.r.t.r.t.t.t.t.5 @ t > , 5 3 , r - 1 k %.1.+.%.i 3 e 2 O . Q 1 , 3 r =.-.&.3 e 1 > u e 1 > f e.r.e.t.t.t.t.t.t.t.t.t.",
"t.w.w.t.e.e.w.t.r.t.0.t.q., e u 1 e e u 3 1 > e e %.*.&.*.5 > 3 5 y   M ~ 1 , 3 %.;.>., e 1 t , , t , > 7.Q w.t.t.t.t.t.t.t.t.t.",
"t.t.t.e.t.r.9./ t.t.e.t.t.t.1 1 1 e 3 , < 1 , t , =.&.*.-.5 , y u < w.< > i > t =.%.%.e p 1 t , f e 5 t.t./ m T t.t.t.t.t.t.t.t.",
"t.r.t.t.t.6.[ ( t.t.t.6.t.t.$ 3 1 3 e , 1 > r @ 3 3 #.%.&.$.<.O.,.&.%.-.=.O.<.-.O.=.=.> u 9 > 3 > i t.8.} * ~ r.t.t.t.t.t.t.t.t.",
"e.t.w.t.t.w.e.t.W r.t.t.w.i > 1 $ 1 e t ` e < 1 , u =.%.+.%.$.;.+.=.&.%.;.*.&.%.-.%.&., 3 5.1 5 u , t./ ^ r.m t.t.t.t.t.t.t.t.t.",
"t.w.w.e.t.{ W ^ [ w.w.t.e.1 p , e 7 r Q ~ u 3 1 r , &.%.&.*.;.$.;.%.%.;.>.;.=.%.%.%.;.$ < , 3 1 1 > r W X.r.w.r.t.t.t.t.t.t.t.t.",
"t.t.t.r.t.r.9.W W ` r.e.6 5 ; i 3 4 e t.W e.8 , , 3 > 1 r e t e , 1 3 , > > @ 1 %.%.%.t 2 0.1 r 3 1 Q Q W r.e.e.t.t.t.t.t.t.t.t.",
"t.w.t.q.w.w.w.[ ! [ e.t.6.e r , < , > f ! t.t., p e 7 u > 3 3 3 e 3 r p e 3 1 1 5 , r , e t.> 2 3 1 E [ t.r.w.t.t.t.t.t.t.t.t.t.",
"w.t.t.e.e.w.t.e.W ^ ~ r.e.3 u 5 7 | Q { < e., 1 1 , u 2 t t > p 1 % e > e 3 < 5 < 5 1 , , i , p u Q t.t.t.t.e.t.t.t.t.t.t.t.t.t.",
"t.t.t.t.t.q.r.e.~ ^ Q t.e.r 1 , , e i + r.e t e 3 u > p > 5 i Q > t 3 3 p t e e e.u , 3 r ! > 1 5 t.e.e.t.t.w.t.t.t.t.t.t.t.t.t.",
"t.w.t.t.e.t.t.w.Q w.r.t.t.r., h r.2 e 5 < , t $ 3 , t.w.r , ( 4 3 g ; 7.1 4 t.3 > t., 5 ; 1 e u w.t.r.w.r.e.t.w.t.t.t.t.t.t.t.t.",
"t.w.t.t.t.w.t.r.t.Q ! e.~ t.w.u t.< Q , t u e.t., t.w.5 e.t.W Q < t.e.< t.e.e.t.t.| Q Q | Q w.t.t.t.t.t.t.t.q.t.t.t.t.t.t.t.t.t.",
"t.t.t.t.w.t.t.e.t.t.~ / r.t.t.e.t.Q t.t.t.t.r.w.e.w.r.t.t.t.e.R Q | q.t.t.t.t.6.t.t.t.^ ) ! ^ t.r.t.t.t.t.t.t.t.t.t.t.t.t.t.t.t.",
"t.t.t.t.t.t.t.t.t.t.r.^ Q t.t.t.! r.[ Q t.t.9.e.t.t.7.e.t.t.t.t.Q / t.t.r.t.r.t.t.t.t.e.q.Q t.t.7.t.t.t.w.t.t.r.t.t.t.t.t.t.t.t.",
"t.t.t.t.t.t.t.t.t.t.! ) W t.t.0.t.t.w.q.t.t.t.w.t.r.t.r.w.t.t.t.q.Q w.t.t.7.t.t.t.r.t.w.e.t.w.t.t.t.t.w.r.t.t.t.t.t.t.t.t.t.t.t.",
"t.t.t.t.t.t.t.t.t.t.e.t.} W r.t.e.t.t.t.t.t.w.t.t.t.t.t.w.e.t.w.t.w.t.e.e.t.t.t.t.t.r.t.t.e.r.w.t.t.t.r.r.e.e.w.t.t.t.t.t.t.t.t.",
"t.t.t.t.t.t.t.t.t.t.q.t.7.( Q ^ r.t.r.r.t.w.t.r.r.t.t.e.t.q.w.t.t.0.w.7.t.t.t.e.e.t.Q w.t.t.t.e.w.q.t.0.t.r.t.t.t.t.t.t.t.t.t.t.",
"t.t.t.t.t.t.t.t.( t.W e.} Q t.e.t.w.t.e.e.w.e.t.r.t.w.r.Q w.r.t.e.r.t.t.t.t.t.r.t.w./ t.t.t.t.t.r.t.t.e.t.t.r.t.t.t.t.t.t.t.t.t.",
"t.t.t.t.t.t.t.t.w.Q ! t.W ( W q.t.w.w.t.t.t.t.w.t.w.r.( ^ Q t.t.t.r.r.w.r.t.t.[ ^ Q ! q.r.e.8.t.q.t.t.t.r.t.w.t.t.t.t.t.t.t.t.t.",
"t.t.t.t.t.t.t.t.t.t.t.t.t.& Q _ e.t.t.t.t.t.t.r.w.t.| ( W ~ t.t.t.w.w.t.r.w.w.R Q r.w.e.t.e.w.t.e.r.t.t.7.Q | w.t.t.t.t.t.t.t.t.",
"t.t.t.t.t.t.t.t.e.w.t.e.7.t.` [ t.t.r.t.t.w.t.e.t.t.& ~ Q w.e.t.t.t.e.t.e.t.[ ( Q e.t.t.t.w.t.t.e.q.e.Q t.^ q.e.t.t.t.t.t.t.t.t.",
"t.t.t.t.t.t.t.t.t.t.t.t.t.e.q.~ ^ Q t.t.r.t.w.t.t.t.w./ t.5.t.t.w.r.r.e.q.' | t.t.t.t.t.t.t.t.t.t.t.r.r.| Q Q w.t.t.t.t.t.t.t.t.",
"t.t.t.t.t.t.t.t.r.t.w.t.w.e.t.B ! w.w.t.t.t.q.t.r.e.r.r.Q r.e.t.t.t.t.0.t.9.q.e.t.t.t.t.t.t.t.t.t.t.w.o.W r.w.t.t.t.t.t.t.t.t.t.",
"t.t.t.t.t.t.t.t.t.t.t.t.t.e.t.4./ M t.t.t.t.w.t.w.e.[ W r.t.t.r.t.t.e.t.t.t.e.t.t.t.t.t.t.t.t.t.t.7./ W / ^ t.t.t.t.t.t.t.t.t.t.",
"t.t.t.t.t.t.t.t.t.t.w.r.t.t.t.t.! Q 9.t.w.e.t.t.t.w.t.[ e.r.t.t.t.w.t.t.w.7.t.t.t.t.t.t.t.t.t.t.t.e.r.Q t.w.t.t.t.t.t.t.t.t.t.t.",
"t.t.t.t.t.t.t.t.t.t.t.t.t.t.w.e.X.t.w.t.e.t.t.r.t.r.t.t.r.t.t.t.t.w.t.t.t.t.t.t.t.t.t.t.t.t.t.t.r.w.t.W q.t.w.t.t.t.t.t.t.t.t.t.",
"t.t.t.t.t.t.t.t.t.t.t.t.r.t.t.t.r.w.e.e.w.t.t.r.r.e.w.t.e.t.r.7.t.t.r.t.e.t.t.t.t.t.t.t.t.t.t.t.t.t.e.t.t.t.r.t.t.t.t.t.t.t.t.t.",
"t.t.t.t.t.t.t.t.t.w.t.t.t.e.t.t.t.w.e.t.w.t.t.t.t.e.t.t.e.t.t.t.t.t.t.t.w.w.t.t.t.t.t.t.t.t.t.t.e.w.t.t.t.e.t.t.t.t.t.t.t.t.t.t.",
"t.t.t.t.t.t.t.t.e.w.t.t.w.t.r.t.q.t.t.t.r.e.t.w.t.w.t.q.t.w.w.t.t.t.e.t.r.t.t.t.t.t.t.t.t.t.t.t.r.w.r.r.w.t.t.r.t.t.t.t.t.t.t.t."
};
