/* XPM */
static char *_0d8bab270bd43d0fa478927102750d3CmvswVnNiHa1UJe8[] = {
/* columns rows colors chars-per-pixel */
"64 64 210 2 ",
"   c #020201",
".  c #0B0102",
"X  c #000901",
"o  c #0A0A02",
"O  c #03030A",
"+  c #09010B",
"@  c #020210",
"#  c #2C241A",
"$  c #2F291F",
"%  c #30261B",
"&  c #30281E",
"*  c #352D23",
"=  c #392E23",
"-  c #393026",
";  c #3C342B",
":  c #3F3830",
">  c #38393E",
",  c #423529",
"<  c #44372A",
"1  c #4B3C2E",
"2  c #443B31",
"3  c #4B3E32",
"4  c #257F00",
"5  c #2C7E03",
"6  c #257E08",
"7  c #2D7D0B",
"8  c #347D03",
"9  c #3A7C03",
"0  c #337E0C",
"q  c #3B7D0B",
"w  c #2C7E10",
"e  c #347C13",
"r  c #3A7C19",
"t  c #3E7824",
"y  c #417D0C",
"u  c #4C443A",
"i  c #4D463C",
"p  c #534334",
"a  c #52453A",
"s  c #5B4738",
"d  c #53493F",
"f  c #5C4839",
"g  c #634535",
"h  c #644C3C",
"j  c #3D3D43",
"k  c #494744",
"l  c #544D43",
"z  c #5B5146",
"x  c #59534A",
"c  c #5F594F",
"v  c #585656",
"b  c #6A5445",
"n  c #725543",
"m  c #7A5B48",
"M  c #7C614D",
"N  c #6A645A",
"B  c #786454",
"V  c #6E6A66",
"C  c #78746C",
"Z  c #F5061D",
"A  c #F7081B",
"S  c #EE032C",
"D  c #F40422",
"F  c #FD0324",
"G  c #F40927",
"H  c #F50529",
"J  c #FC022B",
"K  c #FC092A",
"L  c #EB0430",
"P  c #FD0131",
"I  c #FF0833",
"U  c #F3013B",
"Y  c #985F54",
"T  c #89634E",
"R  c #836451",
"E  c #896955",
"W  c #956957",
"Q  c #936C55",
"!  c #9C6E59",
"~  c #88705F",
"^  c #95725E",
"/  c #9B735D",
"(  c #9E785E",
")  c #A26C5D",
"_  c #A2755F",
"`  c #8D796A",
"'  c #9B7760",
"]  c #9C7963",
"[  c #957D6B",
"{  c #A67661",
"}  c #A47C63",
"|  c #AA7E66",
" . c #B57F69",
".. c #1E8902",
"X. c #1E8710",
"o. c #258402",
"O. c #2C8302",
"+. c #248A01",
"@. c #2B8902",
"#. c #26840A",
"$. c #2D840B",
"%. c #268909",
"&. c #2B890A",
"*. c #338303",
"=. c #3B8203",
"-. c #348801",
";. c #33830B",
":. c #39840C",
">. c #34890F",
",. c #2C8213",
"<. c #268811",
"1. c #328212",
"2. c #32831D",
"3. c #F3EA03",
"4. c #F7E807",
"5. c #FDEC09",
"6. c #F7F305",
"7. c #998474",
"8. c #A98066",
"9. c #A3816F",
"0. c #AE836C",
"q. c #B2856B",
"w. c #B9846D",
"e. c #B4896F",
"r. c #BB8C6E",
"t. c #AA8872",
"y. c #A88A77",
"u. c #B48770",
"i. c #BC8572",
"p. c #B68B74",
"a. c #BD8D73",
"s. c #BC8E79",
"d. c #B2917C",
"f. c #BC937C",
"g. c #C18B75",
"h. c #C39175",
"j. c #C4947B",
"k. c #C9947C",
"l. c #CC9A7D",
"z. c #075EEB",
"x. c #045FF4",
"c. c #0D5FF1",
"v. c #025FFA",
"b. c #095EFE",
"n. c #0364E6",
"m. c #0264ED",
"M. c #0863EB",
"N. c #0169ED",
"B. c #0264F4",
"V. c #0A63F4",
"C. c #0169F3",
"Z. c #0868F3",
"A. c #0263FC",
"S. c #0A62FB",
"D. c #0269FC",
"F. c #0869F8",
"G. c #979591",
"H. c #BA9681",
"J. c #B69A89",
"K. c #A99E97",
"L. c #C89782",
"P. c #CC9B83",
"I. c #CC9F8A",
"U. c #D09A84",
"Y. c #C6A18C",
"T. c #CCA28B",
"R. c #D3A285",
"E. c #D5A58C",
"W. c #D8A68A",
"Q. c #DAAA8E",
"!. c #CAAA96",
"~. c #CDAD9A",
"^. c #D2A591",
"/. c #D4AA95",
"(. c #DBAC94",
"). c #D3AE9A",
"_. c #DAAE9A",
"`. c #CDB09E",
"'. c #D5B19D",
"]. c #DDB19C",
"[. c #E1B49D",
"{. c #E5B89E",
"}. c #CBAFA1",
"|. c #CEB1A1",
" X c #D3B4A3",
".X c #DCB6A3",
"XX c #DBB8A5",
"oX c #D4B9AB",
"OX c #DBBBAA",
"+X c #E1B6A2",
"@X c #E4BDA9",
"#X c #CFC3BB",
"$X c #E3C2B2",
"%X c #E7C6B7",
"&X c #D1C9C1",
"*X c #D8D3CE",
"=X c #DED9D6",
"-X c #DFDBD8",
";X c #E4DEDB",
":X c #F0FFE5",
">X c #F6FDEA",
",X c #FCFEEE",
"<X c #EBFFF4",
"1X c #EEFFFC",
"2X c #FFF6F7",
"3X c #F6FFF4",
"4X c #FDFEF5",
"5X c #FFF5FF",
"6X c #F5FFFC",
"7X c #FEFEFE",
/* pixels */
"7X7X7X7X7X7X7X7X7X7X4X6X7X4X7X6X7X7X7X7X7X7X7X7X7X7X7X4X7X7X7X6X7X7X6X7X4X5X7X7X5X7X7X4X>X7X7X7X7X7X6X7X3X7X7X7X7X7X7X7X7X3X7X7X",
"7X7X7X7X7X7X7X7X,X7X7X7X4X5X7X4X7X7X7X7X7X7X7X7X7X7X6X7X7X4X7X7X7X7X4X7X4X7X4X4X7X6X6X7X7X2X6X7X7X7X7X4X7X7X2X7X7X7X4X4X7X7X4X7X",
"7X7X7X7X7X7X7X7X6X*.$.$.;.5X6X7X7X7X7X7X7X7X7X7X7X7X7X7X4X4X7X7X4X7X7X6X6X6X;.O.4X7 7X7X7X7X7X7X4X7Xo.0 5X3X2X7X7X7X7X6X7X7X7X3X",
"7X7X7X7X7X7X7X7X7X7 7XO.7X4X7X5X7X7X7X7X7X7X7X7X7X7X7X7X7X2X4X7X4X7X7X4X4X7XO.0 *.7X7X7X7X7X4X7X7X*.o.;.6X7X7X6X7X7X6X2X6X6X4X5X",
"7X7X7X7X7X7X7X7X7X4XO.@.O.7X7X7X7X7X7X7X7X7X7X7X6X7X4X1X8 7X6X7X7X7X7X7X5X3X;.7X5X4X>X7X7X7X7X. O   *.O.6X7X7X7X7X7X7X7X7X7X6X4X",
"7X7X7X7X7X7X7X7X7X7X7X7 ;.O.4X7X7X7X7X7X7X7X7X7X7X2X;.7X6X7X7X7X6X4X7X6X4X:.5 *.7X7X7X4X.     O B.O   . 7X7X  . . O   5X6X5X7X7X",
"7X7X7X7X7X7X7X7X7X7X=.7X$.7X7X6X7X7X7X7X7X7X7X7X4X6X*.2X7X7X7X7X7X4X4X7X4Xo.6XO.7X6X7X  S.A.C.B.;.b.v.. .   o C.S.B.V.  6X4X7X7X",
"7X7X7X7X7X7X7X7X7X1X7X*.<.8 O.7X7X7X7X7X7X7X7X7X7X#.*.*.7X7X7X3X7X5X7X6X7X;.*.7X7X    . 7XA.A.Z.O.B.@.B.A.A.N.b.B.D.A.c.  4X7X7X",
";.4X7X7X7X5X7X3X7X7X7X7X0 *.7XO.7X7X7X5X4X7X7X4X7X;.7X7X7X7X7X7X7X7X7X7X7X7XO.7XO   N.A.V.V.B.V.B.S.A.A.n.V.B.B.C.b.x.S.b.  7X7X",
"O.1.8 4X6X7X7X7X7X7X2X6X7X$.O.7X3X7X7X7X4X7X7X>.*.+.6X7X7X7X4X4X7X5X7X7X2X7X7X7X.   . 5 A.B.x.D.V.3XB.D.B.S.b.Z.M.C.#.B.m.O   7X",
"$.o.5 $.$.5 7X7X3X7X6X3X7X;.*.7 O.7X6X7X7XO.8 O.;.;.6X7X7X7X7X5X7X7X7X3X7X8 O..   $.O x.A.  O     *.B.B.B.N.A.m.A.x.B.m.C.A.x.7X",
",X*.7X9 :.O.7X7X7X5X7X7X7X1X*.O.O.3X7X5X7XO.;.o.7X>X5X7X7X7X6X7X7X3X7X6X$.7XO.  3.B.D.M.. 6X7X6X.   C.S.B.7XF.x.V.V.O.@.C.v.  7X",
"7X7X7X7X..*.7X7XO.7X7X7X7X3XO.;.O.8 7X7X6XO.3X7X7X7X2X7X7X7X6X7X7X7X7X9 O.. . 4.4.b.B.. 7X7X7XO.    S.A.+ V.A.A.D.A.v.C.A.B.B.7X",
"7X7X6X4X7X5 *.5 O.7X7X7X7X4X4X7XO.0 7X6X7X7X5X7X7X7X7X6X4X3X7X7X7X4X7XO.  3.3.3.3.S.  7X4X7X4X. A.8 x.7X>X4X. O . 7XB.V.B.V.M.C.",
"7X5X4X4X7X7X*.O.*.o.=.7X5X7X4X7X7X7X6X6X7X5X4X7X7X7X4X6X7X4X6X4X7X$.;.o.O.  . .   7X6X7X7X1X  $.Z.A.N.7XC.z.A.B.x.  @ @ B.      ",
"7X7X6X5X7X7X7X#.8 $.+.7X6X6X4X7X7X7X4X7X7X4X3X7X7X7X7X7X5X7X4X;.7X*.7 @.4X7X4X6X7X7X7X4X7X7Xn.7XA.V.m.7XC.A.V.B.C.N.B.Z.B.m.A.7X",
"7X7X7X7X7X7X7X7X7X5 o.*.7X7X7X7X7X7X7X7X7X6X4X7X7X7X7X6X4X7X5X5 O.$.O.7X7X4X7X5X2X7X5X7X3X7X  b.B.b.V.    .   m.B.B.D.x.7X  .   ",
"7X7X7X7X7X7X7X7X7X7X;.8 7X7X7X4X7X7X7X7X7X7X7X7X7X>X7Xx l i l l u u N 6X7X7X7X7X7X;.7X7X6X7X  C.B.B.n.  C.D.6X7X7X    @   .   7X",
"7X7X7X7X7X7X7X7X7X7X$.9 O.O.7X4X7X3X7X4X7X5X7X7XG.x - & 2 a i i i l z l V 7X3X7X7XO.0 7X7X7X.   B.B.F.6X  x.N.b.B.. O.1...7X7X  ",
"7X7X7X7X7X7X7X7X7X>X6X4X8 O.@.7X7X7X4X7X7X6XC c ; * # - 2 * < ; 2 : : 3 u z 4X7X7X*.*.6X,X7X6X. C.+   S.S.. B.C.B.A.S.. .   7X7X",
"7X7X7X7X7X7X7X7X7X7X7X2X7X0 O.7X7X7X7X7X7X4XV # $ ; - # # & * = - * : : : : k 7X7XO.0 ;.7X7X7X  O .       7X  C.S.6X7X. 4X  4X7X",
"7X7X7X7X7X7X7X7X6X5X7X6XO.7XO.O.:X7X7X7X7X4X: * - 1 m B p - - : ; - - - * - ; u 7X4 *.O.7X7X3X7X  6X7X6X  +   .   .   *.7X6X    ",
"7X7X7X7X7X7X7X7X3X7X6X7X7X7Xq O.r 7X7X7X7Xk ; ; p ' L.L.^ n s 1 a l f f s B B 2 x @.5 &.O.7X7X7X  7X2X7X7X7X7X+ 6X7X7X6X*.O.7X. ",
"7X7X7X7X7X7X7X7X7X7X4X7X3X7X;.O.O.6X7X4Xc 2 * a R j._._.^.I.j.p.p.f.Y. XoXoX|.` l 4X7XO.*.7X7X7X  7X4X7X7X7X4X  4X7X7X,XO.&.6 4X",
"7X4X7X7X6X7X7X7X6X7X4X7X7X7X7Xo.O.;.7X7Xd < < T a.E.(..X[._._._.'.].XXXXXX XoXoXz 7X7X7X8 7X7X4X. 7X7X7X6X4X7X  6X6X7X2XX.7X7X4X",
"7X7X7X7X7X7X6X7X5X4X7X7X7X7X7Xo.#.5X$.N 3 , s k.E.(.[.[.(.Q.E.E.(.'.]._./.!. X X` l 3X7XO.>.;.7X  7X7X7X7X7X7X. 7X7X4X7X7X4X5X7X",
"7X6X7X7X7X6X7X4X7X1X7X7X6X7X  O X + 8 6X< - n R.(.(.(.W.U.W.(.(.'./.'.]..X'.).).7.x 7X6X4X7 6X6X  7X4X7X3X7X6X. . 7X7X4X6X7X7X7X",
"4X2X7X7X7X5X7X7X6X4X6X7X+   $.7X7X  -.5 ; % m s.R.Q.W.R.R.(.+X+X].+X@X@XOX.X X~.7.x 7X4X7XO.9 O.  O 7X7X      7XO .   . . 5 5 $.",
"7X7X6X7X2X7X6X7X4X6XO             . e 0 ; $ h _ h.R.W.W.(.[.[.+X.X+X.X'./.'.OX X7.z 7X7X%.O.+ . .   . 7X7X7X7X7X. 6X;.O.7X#.$.#.",
"7XO O     O 7X7X.   . 7X. X ;.4X7X7X7X6X; & 1 T w.l.Q.(.[.Q.L.k.j.k.e.w.} ] 9.J.7.7X7X6X4X7X  O.. X   7X7X7X4X7X  O ;.7 O.O.*.7X",
"6XX 7XI J   X . + G F   O 6XO.7X6X7X7X4X: * < E a.h.R.].H.Q n m T g.u.g , 2 f E 7.[ 4X7X7X7X7XO.. r   7X7X6X6X7X4X  O.7X0 3X7X5X",
",X  P D F G   H 7XH F H     o.7X7X7X4X7Xl - = s r.l.l./ h , f 1 g ^.$XQ b E ' ] J.| 6X7X7X4X7X#.  O.  7X4X7X5X7X7X7X7X7X7X6X7X7X",
"7X  F D D Z 7XD D X 6XF K     7X,X5X7X7X7XT - , q.l.| m n b ' W W (.%XH.' ! p.'.|.J.7X3X7X4X7X4X7X0 6X7X7X7X7X4X7X7X7X7X7X7X7X7X",
"7X  X U F 6X. 5.. 5.o L J D o O &.3X7X4X! _ _ s | l.h.k.r./ ! { l.R.%XoX(.)..X$XOXJ.7X7 0 6X7X6X7XO.8 6X7X7X7X7X7X7X7X7X7X7X7X7X",
"6X4X. 7XF F F 6.6.5.6.  Z F H O . 7X&.*.i.k.W _ | R.(.(.W.T.Q.[.(.W.@X%XXXOX$X$X X!.7XO.;.7X4X7X7XO.o.7X7X6X5X7X7X7X7X7X7X7X7X7X",
"4X7XX . . P Z O 5.6.6.6.J F A F D 7X6X*.;.P.q.Q._ R.Q.{.@X@X+X(.l.(.+X@XOXP._.XX'.`.3X*.O.7X7X7X4X6X$.9 4X7X7X7X7X7X7X7X7X7X7X7X",
"7X7XX   S I J       5.6.F G     O . 7X$.;.E.U.l.] h.l.(.{.(.W.i. .) E / ^ j.h.T./.'.5 0 6X4X7X7X7X7X7X4X7X7X7X6X7X7X7X7X7X7X7X7X",
"O     K F D ;.J X   O   5XP O 7X4X7X7 w 7X^.E.U.8.q.h.l.l.k.q.e.g._ m n t.Y.f.j.Y.~.7X$.;.7X2X7X7X6X4X7X5X7X7X4X7X7X7X7X7X7X7X7X",
"  F H S D F X O   . X 4XD Z X O 7X,X6X*.7XO.I.P.e.s.a.r.h.q.u.p.k.g.|  .s.f.0.f.j.~.O.o.*.7X7X6X7X6X5X5X7X6X7X6X7X7X7X7X7X7X7X7X",
"    O   . X   *.O.    X J J O.. O   7X7X7X8 7X7Xt.h.h.r.r.r._ Q _ ) Y Y ) / 0.d.j.7X7X>.7 4X4X7X7X7X4X6X4X4X7X4X7X7X7X7X7X7X7X7X",
"7X7X8 7X7X$.o.8 7X. 7X    7XI Z H   O 7X6X3X7X7Xf.p.a.r.q.p.u.k.U.L.k.i.i.I.!.t.d.6X;.O.;.6X2X4X7X7X6X4X4X7X4X7X7X7X7X7X2X7X7X*.",
"7X7X7X=.4X7X*.*.O.  6X7XO   O 6XJ X X 7X7X7X7X7X7Xu.0.q.q.( ( h.P. .) { i.^.!.H.y.7X5 $.O.7 7X6X7X4X7X7X7X4X7X7X7X7X3X7X7X7X&.o.",
"6X7X6X7X0 ;.6X7X7XO 8 6X7X7X  Z K . 6X7X7X7X5X3X6Xj./ / { 8.8.a.U.I.U.I.E.).~.y.4X7X6X8 O.6X6X7X7X6X7X6X2X7X4X7X7X7X3X7X4Xo.7X*.",
"7X4X7X6X7XO.+.7X*.  @.7X7X,Xq 4X7X7X7X4X5X6X7X7X;X}.q.M m E ' 8.f.U.L.j.f.d.J.q 7X7X7X6X$.;.5X7X7X7X2X7X7X7X4X7X7X7X7X4X5 =.>.5 ",
"7X7X7X7X7X7X1.=.3X  O.$.7X6X*.6X7X7X4X7X7X7X7XV =X;X}.} m b b B ~ ' / ' Q E 1XO.7X7X7X2X4X4X4X7X4X7X7X6X7X7X7X5X7X4X>.5 O.,X7X7X",
"7X7X7X6X4X7X4X1X;.  7X7X8 *.5 O.4X7X4X4X4X4Xv v =X;X;X#X9.R h a a a p u x [ *.o.6X4X3X7X7X7X7X4X7X7X4X7X7X7X<X0 7X+.O.7Xe *.7X6X",
"4X,X7X4X7X7X6X7X0   7XO.,.O.=.7X$.3X7X6X7X6Xj j G.-X;X;X*XK.E m b p p h ~ 9.7 2.7X7X7X6X7X7X3X7X7X7X7X7X7X4X7X6X8 8 8 $.7X7X7X7X",
"7X7X7X7X7X7X7X5X7XX 3X7X;.o.7 O.7X5X4X7X7Xj j j > K.;X;X;X*X&Xy.W Q / ' t.[ 7XO.7X7X7X7X7X7X7X4X7X4X7X7X7X3X9 $.%.7X5 %.7X7X4X7X",
"7X7X7X7X7X6X7X7X7X. o.7X4XO.0 8 ;.7X7X7X7X7X7X7X7XO.7 7X7X7X7X7X7X3X7X7X7X7X9 7X7X5X7X6X4X7X4X7X7X7X7XO.7X7X$.O.$.7X7X7X6X4X6X7X",
"7X7X7X7X7X7X7X7X    7X$.4X6X$.6X8 +.7X,X2X7X7X7X7Xy <X4X7X7X4X6X7X7X7X7X7X7X<X7X3X7X5X7X4X6X7X4X4X4X7X5 *.*.O.2X7X4X7X7X6X7X5X7X",
"7X7X7X7X6X7X7X7X  6X4X6X9 7X@.7X*.7X4X7X7X7X6X5X4X,X7X7X,X6X7X7X7X7X4X7X6X4X7X7X1X7X7X7X7X7X7X7X*.6Xo.$.O.7X6X7X4X4X7X6X4X7X7X6X",
"7X7X7X7X7X7X4X  7X7X7X7X7XO.9 ;.O.4X7X7X6X3X6X7X7X7X7X5X7X7X7X4X4X7X7X7X4X7X7X7X7X7X7X3X5X3X;.7XO.O.e O.7X7X7X7X7X7X7X6X;.o.w 8 ",
"7X7X7X4X7X7X  7X7X7X7X7X7X7X5 +.O.$.7X3X7X7X4X7X7X7X7X4X7X7X7X7X7X7X6X7X7X5X6X7X7X7X4X7X7X7X4X7XO.7X4X7X6X7X7X4X7X2X4X7X7X>X;.4X",
"7X7X7X7X7X6X7X7X6X7X6X7X7X7X7X;.$.5 *.$.r 3X7X7X7X7X6X7X2X7X7X7X7X7X7X7X5X4X7X>X6XO.q 7X3X7X7X$.7XO.7X7X7X3X6X7X7X7X7X*.6X:.@.4X",
"7X7X4X7X7X7X4X7X7X7X7X5X4X4X7X4X4X7X*.o.o.5 7X7X3X7X7X7X7X7X7X6X7X7X7X7X4X4X6Xq O.$.$.4X7X5X2Xo.$.4Xo.7X5X7X7X3X7X7X7X4X+.$.e 7X",
"7X7X7X7X7X7X7X7X6X4X7X7X3X7X4X7X7X6X4X;.*.:.5 6X7X7X7X7X7X7X7X7X7X7X7X7X7X7X7XO.*.7X7X4X7X6X3X7X$.7X4X7X4X7X7X7X4X7X7XO.$.7X7X7X",
"6X7X6X7X7X7X7X7X7X7X7X7X7X5X7X4X7X7X7X7X6X5 ,.O.O.O.7X4X4X6X7X4X4X7X6X7X7X7X3Xe @.6X7X7X7X,X7X7X;.+.o.*.7X7X7X7X7X7X7X5 &.O.7X4X",
"7X6X$.9 =.6X,X7X4X5X7X2X7X6X3X7X7X6X7X5X7X2X6X2X$.0 7X7X5X7X7X7X7X7X7X7X4X9 *.7X5 3X7X7X5X7X7X7X7X1.O.9 6X7X7X7X7X7 6X9 7X4X7X7X",
"7X7X4X7X7 3X8 4X7X4X7X3X7X7X6X7X4X6X7X4X6Xq 3X6X7 *.o.4X7X7X6X7X7X7X7X7X,X7X3XO.t 4X4X6X7X7X7X7X4X5 8 *.0 ,X,X5X>X*.7 7X7X,X6X7X",
"7X5X4X6X9 O.O.1.*.O.5 7X7X7X7X7X7X7X2X7X7X7X7X7X4X*.7X6X@.7X7X4X7X7X7X7X7X7X7X7X<X7X2X7X7X4X7X7X7X4X4X2X6X7X6X6X6X*.O.*.7X7X6X7X",
"7X6X7X7X4X5X7X3X,.O.*.;.4X6X7X4X7X6X7X7X7X,X7X7X3X7X7XO.;.7X7X5X6X7X4X7X7X7X2X7X7X5X7X4X7X7X4X7X7X6X7X7X7X7X7X7X7XO.$.3X7X2X7X4X",
"4X7X7X2X7X7X4X7XO.5 7X5 0 o.4X7X7X7X7X7X7X6X5X7X7X7X7X7X7X*.5 6X7X7X7X7X7X3X6X7X7X7X7X7X7X7X7X7X5X7X7X7X7X7X7X7X7X*.O.6X7X4X7X5X",
"7X7X6X7X7X7X7X7X3X7X0 7X$.:.4 6X7X7X7X7X7X5X7X7X2X6X7X7X7X7X7X4X7X7X7X7X6X7X5X7X4X7X7X7X7X7X7X7X4X7X7X7X7X6X*.O.;.O.5X7X7X7X7X7X",
"5X4X7X7X3X7X6X7X7X,X7X7X7X4X7X5X3X7X7X7X7X3X7X7X4X4X7X4X6X7X7X7X7X7X2X7X6X7X4X7X7X7X7X7X4X7X7X7X7X4X7X3X4X7X*.6X4X7X7X7X7X3X7X7X"
};