/* XPM */
static char *ac96d854f3364eba92d876afab3b6211FFBPcbgxuUBS45ze[] = {
/* columns rows colors chars-per-pixel */
"64 64 201 2 ",
"   c #020201",
".  c #0B0102",
"X  c #000901",
"o  c #0A0A02",
"O  c #03030A",
"+  c #09010B",
"@  c #020210",
"#  c #090011",
"$  c #257F00",
"%  c #2C7E03",
"&  c #257E08",
"*  c #2D7D0B",
"=  c #347D03",
"-  c #3A7C03",
";  c #337E0C",
":  c #3B7D0B",
">  c #2C7E10",
",  c #347C13",
"<  c #3A7D12",
"1  c #377719",
"2  c #3C7D1D",
"3  c #3E7824",
"4  c #417D0C",
"5  c #F3071D",
"6  c #FB031D",
"7  c #F7081B",
"8  c #EE032C",
"9  c #F40422",
"0  c #FD0324",
"q  c #F40925",
"w  c #F50529",
"e  c #FC022B",
"r  c #F4082E",
"t  c #FC092A",
"y  c #EB0430",
"u  c #FD0131",
"i  c #FF0833",
"p  c #F3013B",
"a  c #1E8700",
"s  c #1E8A03",
"d  c #1E8710",
"f  c #258402",
"g  c #2C8302",
"h  c #248A01",
"j  c #2B8902",
"k  c #26840A",
"l  c #2D840B",
"z  c #268909",
"x  c #2B890A",
"c  c #338303",
"v  c #3B8203",
"b  c #348801",
"n  c #33830B",
"m  c #39840C",
"M  c #34890F",
"N  c #2C8213",
"B  c #268811",
"V  c #2B8911",
"C  c #328212",
"Z  c #32831D",
"A  c #408206",
"S  c #F6E600",
"D  c #F3EA03",
"F  c #F8ED05",
"G  c #F5E70A",
"H  c #FAE60B",
"J  c #FDEC09",
"K  c #F3F200",
"L  c #FBF203",
"P  c #F1FB00",
"I  c #F5F20A",
"U  c #FFF40F",
"Y  c #075EEB",
"T  c #045FF4",
"R  c #0D5FF1",
"E  c #025FFA",
"W  c #095EFE",
"Q  c #0364E6",
"!  c #0264ED",
"~  c #0863EB",
"^  c #0169ED",
"/  c #0264F4",
"(  c #0A63F4",
")  c #0169F3",
"_  c #0868F3",
"`  c #0263FC",
"'  c #0A62FB",
"]  c #0269FC",
"[  c #0869F8",
"{  c #F0FFE5",
"}  c #F6FDEA",
"|  c #FCFEEE",
" . c #EBFFF4",
".. c #EEFFFC",
"X. c #FFF6F7",
"o. c #F6FFF4",
"O. c #FAFEF5",
"+. c #FCFDF5",
"@. c #FFFCF5",
"#. c #FFFFF4",
"$. c #FEFEF4",
"%. c #FCFDF7",
"&. c #FFFDF6",
"*. c #FCFFF6",
"=. c #FFFFF6",
"-. c #FEFFF7",
";. c #FEFFF6",
":. c #FDFEF5",
">. c #FFF5FF",
",. c #FFF7FF",
"<. c #FFF6FE",
"1. c #F1FFFB",
"2. c #F7FFF8",
"3. c #F5FEFB",
"4. c #F7FFFA",
"5. c azure",
"6. c #F3FFFF",
"7. c #F4FFFD",
"8. c #F7FFFC",
"9. c #F7FDFF",
"0. c #F4FFFF",
"q. c #F5FFFF",
"w. c #F7FFFF",
"e. c #F6FFFF",
"r. c #F5FFFD",
"t. c #F9FBFA",
"y. c gray98",
"u. c #FFFBF8",
"i. c #FFFAF9",
"p. c #FFFBFB",
"a. c #FFFBFB",
"s. c #F9FFF8",
"d. c #FAFFF9",
"f. c #FBFFF8",
"g. c #F9FFFB",
"h. c #FBFFFA",
"j. c #FBFFFB",
"k. c #FAFFFB",
"l. c #FFFDF8",
"z. c #FCFFF8",
"x. c #FFFEF8",
"c. c #FEFFF8",
"v. c #FDFDFB",
"b. c #FFFCFA",
"n. c #FEFDFB",
"m. c #FFFDFA",
"M. c #FCFFFB",
"N. c #FFFEFA",
"B. c #FEFFFA",
"V. c #FFFFFA",
"C. c #FFFEFB",
"Z. c #FEFFFB",
"A. c #FFFFFB",
"S. c #F9F9FF",
"D. c #FAFAFC",
"F. c #FFF9FD",
"G. c #FDFBFC",
"H. c #FFFBFC",
"J. c #FDF8FF",
"K. c #FFF8FF",
"L. c #FFF9FF",
"P. c #FDFBFF",
"I. c #FFFAFF",
"U. c #FEFBFF",
"Y. c #FFFBFF",
"T. c #F9FFFD",
"R. c #FBFFFD",
"E. c #FBFFFC",
"W. c #F8FCFF",
"Q. c #FBFCFF",
"!. c #F8FFFF",
"~. c #F9FFFF",
"^. c #FAFFFF",
"/. c #FBFFFF",
"(. c #FBFEFF",
"). c #FDFDFD",
"_. c #FFFCFD",
"`. c #FFFDFC",
"'. c #FCFFFD",
"]. c #FDFFFC",
"[. c #FFFEFD",
"{. c #FEFFFD",
"}. c #FFFFFD",
"|. c #FEFEFC",
" X c #FCFCFF",
".X c #FDFCFF",
"XX c #FDFDFF",
"oX c #FCFCFE",
"OX c #FEFCFF",
"+X c #FFFCFF",
"@X c #FEFDFF",
"#X c #FFFDFF",
"$X c #FFFCFE",
"%X c #FCFFFF",
"&X c #FDFFFF",
"*X c #FEFEFF",
"=X c #FFFEFF",
"-X c #FEFFFF",
";X c white",
":X c #FEFEFE",
">X c #FDFDFD",
/* pixels */
";X;X;X;X;X;X;X;X;X;XO.7.U.@.U.7.;X;X;X;X;X;X;X;X;X;X;X:.U.;X;X7.R.;X7.;X:.>.;XR.>.;X;X$.} U.v.R.;XR.7.;XO.;XU.;X;X;XU.;XR.2.v.R.",
";X;X;X;X;X;X;X;X| v.U.v.$.U.;X:.;X;X;X;X;X;X;X;Xi.R.7.;XR.:.v.U.U.R.@.;X+.U.:.@.v.2.S.v.;Xi.7.v.;Xi.;Xv.v.v.:.;Xv.i.:.:.;XU.v.U.",
";X;X;X;X;X;X;X;X7.c l l n S.7.;X;X;X;X;X;X;X;X;Xv.U.U.U.O.:.U.U.:.v.;X7.7.3.n j +.* R.R.i.;XU.U.:.;Xf ; >.:.X.R.;XU.U.7.U.;XU.| ",
";X;X;X;X;X;X;X;Xv.* U.g v.:.v.>.;X;X;X;X;X;X;X;Xv.v.v.;X;Xi.O.;X:.v.R.i.$.U.g ; c ;X;XU.;X;X:.R.;Xc f n 7.R.;X7.U.R.4.+.v.7.2.>.",
";X;X;X;X;X;X;X;X;Xv.g j c ;X;X;X;X;X;X;X;X;X;X;X7.;XO...- v.7.;X;XU.;XU.>.| n R.S.$.| ;Xv.R.;X. O   c g 4.v.i.;Xv.R.;Xv.;XR.7.@.",
";X;X;X;X;X;X;X;Xv.R.v.* n g $.;X;X;X;X;X;X;X;X;Xi.y.n ;X7.;XR.;X7.@.v.7.y.m % c R.U.v.@..     O / O   . ;XR.  . . O   >.7.U.U.v.",
";X;X;X;X;X;X;X;Xv.v.v 2.l ;XR.7.;X;X;X;X;X;X;X;Xv.7.c i.U.v.v.U.v.O.:.;XO.f 7.j R.4.;X  ' ` ) / n W E . .   o ) ' / (   4.@.R.;X",
";X;X;X;X;X;X;X;X;X7.U.c B = g i.;X;X;X;X;X;X;X;X;Xk c c v.;XR.:.;XU.v.D.R.n c ;XU.    . U.` ` _ g / j / ` ` ! W / ] ` R   O.U.;X",
"n O.U.U.;X>.;X:.U.R.;X;X; c v.g ;X;X;X>.:.U.v.:.v.n v.v.U.;X;XR.;X;XU.v.U.;Xg R.+   ^ ` T ( / ( / ' ` ` Q ( / / ) W T ' W   ;XU.",
"% M = $.7.;X;XR.U.U.@.7.v.l g ;X:.v.R.R.@.v.;XM c h 7.;X;Xv.:.$.v.>.U.v.i.;XU.R..   . % ` ) T ] ( o./ ] / ' W _ ~ ) k / ! O   ;X",
"l f % l l % v.v.O.R.R.:.v.n c * g R.7.v.;Xg = g n n S.R.R.;XU.U.v.;XR.O.U.= g .   l O T `   +     c / / / ^ ` ! ` T / ! ) ` T v.",
"| c R.- m g R.U.;XS.R.i.R...c g g O.v.>.;Xg n f R.} >.R.;XU.v.;Xv.4.v.3.l v.g   D / ] ~ . S.;X7..   ) ' / ;X[ T ( ( g j ) E   R.",
";XU.U.v.a c R.;Xg ;Xv.;X;XO.g n g = ;X;X2.g O.;XU.;XX.v.v.R.7.R.;X;XU.- g . . G H E / . ;Xv.v.j     ' ` + ( ` ` ] ] E ) ` / / ;X",
"U.R.7.:.;X% c % g R.U.;Xv.:.@.v.j ; R.7.;X;X>.R.;XR.;X7.:.o.;XU.R.O.v.g   D D S D '   v.O.;X@.. ` = T ;X} $.. O . i./ ( / ( ~ / ",
"v.>.$.:.R.;Xb g c f v U.>.;Xv.;Xi.;XS.7.R.>.O.U.;Xv.@.7.U.+.U.O.R.l n f g   . .   ;XS.;Xi...O l _ ` ! U.) Y ] / T   @ @ /       ",
";Xv.4.>.;Xv.;Xk = l h U.7.7.:.R.;XR.:.;X;XO.2.R.;X;Xv.v.U.U.O.n v.v * j :.;X:.7.v.R.;X:.v.R.Q v.` ( ! ;X/ ` ( / ) ! / _ / ! ` ;X",
";X;X;X;X;X;X;X;Xv.g f c ;XR.;XR.v.R.U.U.R.7.+.;X;XU.U.S.:.;XS.c g l j 2.v.v.v.U.$.;X>.;X2.R.  W / W (     .   ! / / ] T ;X  .   ",
";X;X;X;X;X;X;X;XU.i.n = v.;X;Xi.v.R.;X;X;XR.v.U.U.} ;X$.4.$.c f ; :., v.U.;Xv.U.R.n v.U.7.v.  ) ) / Q   ) ] S.R.U.    @   .   U.",
";X;X;X;X;X;X;X;X;X;Xl - g g v.:.;XO.v.:.v.U.i.;Xv.v.;XD.U.% m f 4.U.v.D.;XU.| v.R.g ; v.v.U..   / / [ 7.  T ^ W ) . g C s U.U.  ",
";X;X;X;X;X;X;X;XU.} 4.O.= g j ;X;Xv.v.v.v.U.;XR.;X3.U.O.g l g R.U.R.;X:.U.4.v.R.;Xc c 2.| ;XD.. ) +   ' ' . / ) / ` ' . .   U.v.",
";X;X;X;X;X;X;X;Xv.;X;XX.;X; g v.;XU.;XR.;Xv.;X7.;XU.U.g :.c % U.U.v.v.;XO.;X7.U.;Xg ; n U.R.;X  O .       U.  / ' 7.R.. $.  :.R.",
";X;X;X;X;X;X;X;XS.>.R.4.g R.g j { U.U.R.4.v.;XR.U.R.$.;X% n v.:.;XR.U.;X7.U.;XU.U.$ c g v.;X2.R.  4.;X2.  +   .   .   b U.7.    ",
";X;X;X;X;X;X;X;XO.;X7.;X;XR.: g 2 R.U.v.;Xv.v.;XU.n 2.v R.R.7.v.v.$.;XU.;XO.7.;X;Xj % x g ;Xv.U.  U.i.;Xv.R.R.+ 7.;Xv.S.c g ;X. ",
";X;X;X;X;X;X;X;XR.v.:.;X:.v.n g g 4.U.O.;Xv.;X>.;Xf n = v.;XU.:.;Xv.S.v.v.v.l i.4.:.U.g c ;Xv.R.  U.O.R.U.;X$.  O.U.;X| g x & O.",
"v.O.v.;XU.;X;XU.7.v.:.U.v.;Xi.f g n v.;X@.;XU.;X;Xj * v.U.;X;XU.;X7.i.>.;X4.- f :.;Xv.;X= v.;X$.. R.;Xi.7.v.4.  4.7.;XX.d v.v.v.",
";Xv.;X;X;XR.3.U.U.:.U.;Xv.U.;Xf k >.l v.$.7.;XO.v.% c O.v.2.O.v.| v.;Xv.4.g l g l ;X2.v.g M n ;X  ;Xv.;XR.v.v.. ;X;Xy.v.v.:.>.;X",
"R.S.v.;XR.4.U.@.U...v.v.3.;X  O X + = 7.v.;Xi.v.; o.;XR.$.;XR.U.7.;X;Xg % l c ;Xv.U.;X7.:.* 3.7.  ;X:.;Xo.v.U.. . U.v.:.S.R.R.U.",
"i.X.R.v.v.U.U.v.R.v.7.R.+   l ;X;X  b % 4.7.U.v.i.v.;XU.;XR.O.;Xv.:.R.n ; j = v.R.i.;X:.;Xg - g   O v.;X  .   R.O .   . . % g l ",
"v.;X7.v.X.;X7.;XO.R.O             . , ; v.7.R.;X;XR.;XU.v.;XU.i.;XU.+.c n ;XR.7.D.R.;X;Xz g + . .   . v.;XR.v.R.. 7.n g ;Xk l k ",
";XO O     O U.R..   . :.. X n $.;XR.;X7.:.U.:.U.R.7.;X:.R.R.;X;XU.g ;Xc U.@.U.v.;X$.v.7.+.;X  g . X O v.;Xv.v.;X  O n * g g c v.",
"7.X R.i e   X . O q 0   O S.j ;X2.R.v.O.@.v.;Xv.;Xv.>.v.7.U.:.N v.c c 7.;X4.v.>.v.;X@.U.R.U.;Xg . 1   U.v.2.R.U.O.  g ;X; 2.;X>.",
"|   u 9 0 q   w U.w 0 r     f ;XU.;X:.;XU.v.7.;XU.v.;X;X7.v.:.v.= h l :.;XR.$.v.;XR.R.;XU.$.R.k   g   ;Xv.v.S.U.i.v.;XU.R.2.;XR.",
"U.  0 9 9 7 ;X9 9 X S.0 t     ;X| >.v.;X;XO.;Xv.;X;Xi.v.;X;XO.n g ;X;Xv., = ;Xv.v.v.;X$.R.$.U.v.;X; 3.v.v.U.;X:.;X;X;X;X;X;X;X;X",
"R.    p 0 7.. I . J o y e 9 o O x o.;X:.U.7.U.;XR.;X;XR.v.;Xg g N ;X| :.3.% 2.% R.;X;X% ; 7.;X7.U.g c 7.;XR.v.;X;X;X;X;X;X;X;X;X",
"7.:.. R.0 0 0 L L J F   5 0 w O . ;Xz c 7.v.4.;XO.U.v.v.7.g - l :.R.U.U.f c $.;Xv.;XR.g n U.:.U.v.g f ;Xv.7.U.v.;X;X;X;X;X;X;X;X",
"O.;XX . . u 6 O J I K P e 0 7 0 9 ;X7.c n i.v.;XO.R.7.;X= ;Xc R.;Xv.7.i.;Xf g R.U.v.4.c g ;Xv.R.@.4.l - :.v.;Xv.;X;X;X;X;X;X;X;X",
";XU.X   8 i e       U K 0 q     O . R.l n - R.;XU.2.c g U.; v.7.i.;XR.;XD.l g U.i.2.% ; 7.O.i.;XR.R.R.O.;XU.;X7.;X;X;X;X;X;X;X;X",
"O     t 0 9 n e X   O   >.u O ;X$.R.* > v.:.7.$.@.n g v g l :.v.R.R.i.y.R.R.= v.@.R.R.l n ;Xi.;XU.U.:.;X>.i.;XO.;X;X;X;X;X;X;X;X",
"  0 w 8 9 0 X O   . X :.9 7 X O ;X| 7.c v.l f i.;X;X7.g z g c U.;X7.@.R.;X* x U.S.:.c f c R.;X7.;X7.>.>.R.v.;XS.;X;X;X;X;X;X;X;X",
"    O   . X   c g     X e e g . O   v.U.R.= ;XU.;X;Xv.; c ;Xi.;XR.R.i.;X@.;Xj R.U.v.U.M % O.:.U.;X;X$.7.v.O.;X:.;X;X;X;X;X;X;X;X",
";XR.= R.;Xl f = ;X. U.    U.i 5 w   O v.7.O.;XR.;XR.@.g v.g ;X:.i.;X4.;XU.:.: 7.;X2.n g n 7.X.i.R.;XS.:.:.;XR.R.v.R.v.v.U.;X;Xc ",
"v.v.v.v :.;Xc c g   3.v.O   O 7.e X X i.;Xv.U.v.U.o.4.= R.O.;X4.R.U.;Xv.O.$.g = ; U.% l g % ;X4.v.:.v.U.v.:.v.U.U.U.O.R.;Xi.x f ",
"7.;X4.i.; n 7.;X;XO = 3.v.R.  5 t . 7.;Xv.v.U.4.3.M >.g ;Xv.;X>.;X;XU.;Xv.;Xh - :.U.2.= g 7.S.v.;X7.R.R.i.v.:.v.U.v.O.v.i.f U.b ",
"v.v.;X7.;Xg h ;Xc   j ;XR.| : i.i.R.v.v.U.S.;Xv.v.% : g ;X2.X.R.v.:.;X| v.U.c : ;X;X;X7.l n U.R.R.;X$.v.U.U.:.U.;Xv.;XO.% v M % ",
"U.R.;XR.v.U.C v 2.  g l U.7.c 7.;XU.O.R.U.;X;XR.l g ; R.y.4.;X:.R.v.O.U.S.v...g ;X;X;X@.i.O.@.;X:.U.;X7.;Xi.U.U.;XD.M % g | v.;X",
"i.;XU.2.O.;X@...n   ;Xv.- b % g :.;Xi.@.:.O.i.v.;Xc c c R.U.>.4.R.;X;X@.v.:.c f 2.O.:.v.U.;X;Xv.U.;X:.U.U.v. .; ;Xh g ;X, c R.7.",
":.| ;X:.v.;XD.;X;   4.g N g v 4.l | U.7.R.R.D.;Xj g * ;Xv.:.U.R.;Xv.;X;X;XU.% Z U.;Xi.7.R.R.2.R.R.v.;X;XU.:.R.4.= = - l ;Xv.;Xv.",
"R.;XR.;X;Xv.;XS.U.X o.;Xn f * g v.U.:.v.;XO.v.>.; g z R.7.2.;Xv.U.| 7.U.R.:.v.g ;XU.v.R.U.R.v.@.;X$.;Xv.;Xo.- l z v.% z R.v.O.;X",
";X;X;X;X;XS.;X;X;X. f ;X$.g ; = n ;XR.v.R.R.R.;X;Xg * ;X;XR.U.v.;XO.;Xv.U.2.: ;Xv.>.U.7.$.U.y.;XU.U.;Xj U.v.l g l ;X;X2.7.@.7.;X",
"U.;X;X;X;X;Xv.;X    ;Xl :.7.l 7.= h i.| X.R.v.v.U.4  .:.R.;X:.S.;Xv.;X;Xv.;X .;X:.R.S.;X$.S.;X:.O.$.U.% c c g i.U.O.U.R.U.;XS.v.",
";X;X;X;Xy.;X;X;X  7.@.7.- v.j v.c U.@.U.;XU.R.U.O.| ;XU.| 7.v.;X;X;X$.;XU.:.v.R...;X;XR.v.;X;X;Xc 7.f l g ;X7.R.:.:.v.U.:.v.U.v.",
";XU.;X;X;X;Xy.  R.v.;Xv.i.g - n g $.R.R.S.o.7.;X;XU.U.>.v.;XU.$.+.;X;Xv.:.;Xi.;X;Xv.i.o.U.o.n ;Xg g < g i.;XU.;X;XR.R.7.n f N = ",
";X;X;Xy.;X;X  ;Xv.U.R.R.;XU.g h g l ;Xo.U.;XO.i.;Xv.U.$.U.U.;Xv.v.R.S.;X;X>.S.;Xv.;X:.U.;X;X$.i.g ;X:.R.7.;X;X:.;Xi.$.U.;X} n $.",
";X;X;X;X;Xy.;X;XU.R.R.R.U.;XR.n l % c l 2 o.;XR.v.R.7.;Xi.;Xv.;X;XR.;XU.>.$.2.} 7.g : ;Xo.R.R.l U.g R.v.;XO.3.;XR.v.U.c 7.n j O.",
";X;Xy.;X;X;Xy.;XU.v.R.>.v.O.U.O.O.;Xc f f % ;X;X:.R.R.v.v.;Xv.S.v.v.;X;X$.$.7.: g l l :.;X>.X.f l $.f v.>.;XU.2.R.;X;X@.j l , ;X",
"v.;X;X;X;X;X;X;Xv.2.;X;X| R.$.U.;XU.O.n c n % 7.;X;X;X;XR.v.;X;XR.;Xv.U.R.R.U.g c v.;X:.U.7.O.;Xl ;XO.U.:.v.R.i.:.R.;Xg l R.v.v.",
"U.:.7.U.v.v.;X;Xv.;XR.;X;X>.R.:.R.R.;Xv.3.g N g g g R.v.:.7.U.O.:.;XU.;XR.U.o., j 4.U.v.v.$.R.;Xn h f c ;Xv.;X4.;XR.;X% x g ;X:.",
";X7.l - v 7.| U.:.U.R.i.v.4.:.v.;X7.U.>.;X@.7.i.l ; ;X:.S.U.i.;X;XU.R.U.:.- b v.% O.i.;XU.v.R.i.;XC g - 2.U.U.;XU.* 7.- i.O.;Xv.",
"U.v.$.R.* 2.= :.R.:.U.O.U.;X7.;Xv.v.v.:.7.: 2.U.* b $ v.;XR.7.;X;X4.;Xi.| U.O.g 3 $.:.7.;X;XR.U.$.% = c ; | | U.} c * ;X;X| 7.R.",
"v.>.O.7.- g g C b % % v.v.;Xv.;Xi.;Xy.v.v.R.R.U.:.c ;X7.j ;Xv.:.;XU.;XR.R.;Xv.U. .;XX.R.;X+.R.U.;XO.S.$.4.U.7.R.U.c g c U.U.U.R.",
"v.R.R.v.:.S.;Xo.N g b n i.7.;Xy.;X7.R.U.;X| R.v.O.U.;Xg n U.;XU.7.;Xi.v.;XU.X.;XR.>.v.v.R.v.O.U.U.7.;XU.i.R.;XU.;Xg l o.;X@.U.:.",
"R.v.;XX.U.;X:.;Xg % ;X% ; f O.@.;XU.U.U.U.7.>.;XR.R.i.U.U.c % R.;X;X;X;X;Xo.4.R.v.;Xv.;X;X;X;X;X>.v.;Xv.U.;XU.v.;Xc c 7.U.:.4.>.",
"U.U.7.;Xv.U.;XU.2.R.n R.l m $ 7.;XR.R.v.v.>.R.v.@.;XU.;Xv.R.v.:.U.v.;XR.7.R.S.R.:.v.;X;XU.U.;X;XO.;Xv.R.;X7.c g n g >.;XR.U.;Xv.",
"U.O.;Xv.o.;X2.;XU.| U.v.U.@.;XU.:.U.;XR.;XO.;XR.$.O.U.O.7.;XU.v.;X;Xi.v.U.i.@.U.U.R.R.;X:.v.;XR.;Xi.R.O.:.;Xc 7.:.;Xv.R.;X2.v.;X"
};
