/* XPM */
static char *_c5fd1906c8840c79efa193b90ea5478mC6fwFpYv2BoNaSd[] = {
/* columns rows colors chars-per-pixel */
"64 64 194 2 ",
"   c #753D05",
".  c #753E0C",
"X  c #793C0D",
"o  c #6E3F11",
"O  c #743E12",
"+  c #7B3C11",
"@  c #2F7600",
"#  c #2E7D04",
"$  c #2D770B",
"%  c #2E7C0C",
"&  c #357603",
"*  c #3C7605",
"=  c #357C04",
"-  c #3A7B04",
";  c #34760B",
":  c #3B760C",
">  c #357B0B",
",  c #3A7B0B",
"<  c #2E7610",
"1  c #2F7E11",
"2  c #347713",
"3  c #3C7512",
"4  c #357A12",
"5  c #3B7B13",
"6  c #3B751A",
"7  c #367C1A",
"8  c #5C4C0D",
"9  c #5D4D13",
"0  c #5D4D1B",
"q  c #5D5215",
"w  c #5D511A",
"e  c #57591A",
"r  c #56551D",
"t  c #6D440B",
"y  c #69490E",
"u  c #664D0D",
"i  c #744007",
"p  c #74410C",
"a  c #79420D",
"s  c #654617",
"d  c #6D4412",
"f  c #644A15",
"g  c #6B4B16",
"h  c #64461C",
"j  c #6C451B",
"k  c #634B1C",
"l  c #6A4C1C",
"z  c #734213",
"x  c #714B16",
"c  c #605215",
"v  c #63511C",
"b  c #6B5116",
"n  c #436F0E",
"m  c #4B6F0B",
"M  c #417606",
"N  c #417B04",
"B  c #42740C",
"V  c #417A0C",
"C  c #437412",
"Z  c #4D7610",
"A  c #417A13",
"S  c #44731D",
"D  c #467819",
"F  c #5D4D23",
"G  c #5C4D2A",
"H  c #575022",
"J  c #5E5121",
"K  c #595528",
"L  c #644521",
"P  c #6B4723",
"I  c #644C23",
"U  c #6A4B23",
"Y  c #6B462C",
"T  c #644B2B",
"R  c #6D4D2C",
"E  c #724A24",
"W  c #724423",
"Q  c #645123",
"!  c #604F31",
"~  c #486F20",
"^  c #467121",
"/  c #5A4C41",
"(  c #803A06",
")  c #81380B",
"_  c #EF131F",
"`  c #EC0E2B",
"'  c #F70724",
"]  c #F50D25",
"[  c #F80F22",
"{  c #F30C2B",
"}  c #FA0A2E",
"|  c #EC1224",
" . c #EC112B",
".. c #F21320",
"X. c #ED0D32",
"o. c #F30933",
"O. c #FA0A34",
"+. c #E71230",
"@. c #EB1132",
"#. c #2D8104",
"$. c #2E8109",
"%. c #338103",
"&. c #398204",
"*. c #37810A",
"=. c #34810B",
"-. c #39810C",
";. c #2A8110",
":. c #358113",
">. c #3B8115",
",. c #40810D",
"<. c #EBEC0D",
"1. c #F4EC0D",
"2. c #F9ED0F",
"3. c #EDF206",
"4. c #ECF10C",
"5. c #F5F10D",
"6. c #E9ED14",
"7. c #F3E715",
"8. c #FCE710",
"9. c #F2EE15",
"0. c #FAEC11",
"q. c #F4EA19",
"w. c #EEF010",
"e. c #045FE1",
"r. c #0B5EE4",
"t. c #1B5CEB",
"y. c #145AEE",
"u. c #075FF7",
"i. c #0C5FF5",
"p. c #0C5FF8",
"a. c #135EF2",
"s. c #125EFA",
"d. c #0565E5",
"f. c #0C66E6",
"g. c #0E68E2",
"h. c #0C65EA",
"j. c #0869EE",
"k. c #0469E6",
"l. c #1362E6",
"z. c #1263EC",
"x. c #0664F2",
"c. c #0B63F3",
"v. c #056BF1",
"b. c #0C68F6",
"n. c #0562F9",
"m. c #0A64FA",
"M. c #0269F9",
"N. c #1263F2",
"B. c #116BF7",
"V. c #1363F9",
"C. c #1963F8",
"Z. c #116AF8",
"A. c #FFFFDD",
"S. c #EDFFE7",
"D. c #F4FFE3",
"F. c #FFF6EB",
"G. c #F5FFED",
"H. c #FDFDED",
"J. c #EEFFF2",
"K. c #EFFFFC",
"L. c #FFF7F0",
"P. c #F6FFF1",
"I. c #F7FFF7",
"U. c #F5FFF4",
"Y. c #FAFFF2",
"T. c #FEFEF6",
"R. c #FDFEF4",
"E. c #FEF6FE",
"W. c #F7FFFA",
"Q. c #F5FFFF",
"!. c #F7FFFE",
"~. c #F5FFFD",
"^. c #FFF9FB",
"/. c #FAFFF9",
"(. c #FCFFFA",
"). c #FEFFFB",
"_. c #FEFEF9",
"`. c #FFFBFD",
"'. c #FFFBFF",
"]. c #FFFAFF",
"[. c #FEF9FE",
"{. c #FBFFFD",
"}. c #F9FFFF",
"|. c #FBFFFF",
" X c #F9FDFF",
".X c #FFFFFD",
"XX c #FCFCFF",
"oX c #FFFDFF",
"OX c #FFFCFF",
"+X c #FEFFFF",
"@X c white",
"#X c #FFFEFF",
"$X c #FDFEFE",
"%X c #FEFEFE",
/* pixels */
"@X@X@X@X@X@X@X@X@X@X[._.W.T.{.@XG.6 ; -.= *.* %.> > > = > > , , : S.{.[.@X_.{.{.@X[.W.{.@X{.@X@X@X@X@X{.@X{.@X@X~.@X[.[.@X{.{.{.",
"@X@X@X@X@X@X@X@X@X_.{. X[.@X{.~.3 - V $ , : % > > , , , > - > > & S {.[.).@X[.R._.T.5 = & = 4 - > - , > - , > - C G.)./.[.^.{.^.",
"@X@X@X@X@X@X@X@X~.[.@XU.@X[.@XB ; , # ; *.- A > > - > > , > > > *.; 3 , = # ; = > ; -.M , , = > > > > > > > > > & V @X[.).[.{.T.",
"@X@X@X@X@X@X@X@X~.[.[._.W.{.~.= *.$ = :., - # - > > > , > , > > = 5 - = > =.*.; - 5 > * = - M 5 - > - - - ; - - 3 %.@X[.I.@X{.{.",
"@X@X@X@X@X@X@X@X@XF.@XT.U.* : - = V , , * = > % , > - > > > , - =.= - = > 4 = - % - = % , $ =.= > > , > > , , > 5 > {._.@X^.~.@X",
"@X@X@X@X@X@X@X@X@X).R.{.B 4 = > , > - - = , =.> > , , > , > > > 3 - - = = > > > V , { X.{  .: > > : > > ; > > > % > P._.@X[.@X[.",
"@X@X@X@X@X@X@X@X_.@X).: 4 - = *.' @.O.` X.@.3 , > > > , > - > , 5 4 & >.2 = -.; %.: { O.{ ] +.` = = = = = = = = - 6 _.@X@X[.@X@X",
"@X@X@X@X@X@X@X@X[.Y.~.5 %.- 4 5 ` X.X.' ` { , - , - > > > , > > = = -.; 5 - - = > > | ` { o. .] > , > > , , > > N W.{.@X^.).~.@X",
"@X@X@X@X@X@X@X@X).{.@X= > > , - { { X.o.{ ..2 =., = = , , , > = = - %.M $.= V $.= , 7 | ] X.X.O.- 4 > - 4 % C @X@X@X@X@X@X@X@X@X",
"@X@X@X@X@X@X@X@X).@X@X& 4 4 = > { } { { [ 7 M = > : V $.$.#.> , > $., > > %.M : - = $.: > > - #.- = =.* # > G.@X@X@X@X@X@X@X@X@X",
"@X@X@X@X@X@X@X@X{.[.@X* 5 ; - > # , > % % : > = =.> , > > - = * , > > : > , =., , > : > $.> , * =., = V = , [.{.@X@X@X@X@X@X@X@X",
"@X@X@X@X@X@X@X@X{./.R.3 &.& = > #.> - , > : = > %.: $.: = = = - &.= > > * > > %.#.= %.: %., > 4 $ , = : = = P.@X@X@X@X@X@X@X@X@X",
"@X@X@X@X@X@X@X@X@X{.@X= # *.= > 5 5 % > , = = - = , : = = , , 5 > 3 ; =.= : ; * , B = = - N * = - 4 = = 5 > A @X@X@X@X@X@X@X@X@X",
"@X@X@X@X@X@X@X@X).@XT.6 , = = 5 * * - = - = = > , > , > : > 2 | ] ] | 5 > , , %.1 > 4 > , , > > , %.- > - , %.Y.@X@X@X@X@X@X@X@X",
"@X@X@X@X@X@X@X@X@XW.R.Q.C 5 *.& > 4 4 > > > , 4 > = - $.= , ..o.o.X.{ 3 = > % - = M = #.#.= > - > > , = > > = _.@X@X@X@X@X@X@X@X",
"@X@X@X@X@X@X@X@X).~.E.@X/.- > , - %.- , %.> = = - , : #.M 3  .o. .X.] , &., 4 = = B > > , : , %.> ; - = > - ^ ~.@X@X@X@X@X@X@X@X",
"@X@X@X@X@X@X@X@X@X@X@X@X@X@X@X@XW.@XI.{.7 & =.> , > > , > 6  .` X.] | V > , - 4 = > > , , & , = - % > , 4 - {.I.@X@X@X@X@X@X@X@X",
"@X@X@X@X@X@X@X@X@X@X@X@X@X@X@X@X{.I.[.T.Y.N ; > ; > #.= = = - - $.M 3 # > & %.> > , = , > *.= 4 : &.* & , - [.@X@X@X@X@X@X@X@X@X",
"@X@X@X@X@X@X@X@X@X@X@X@X@X@X@X@X[.@X[.).~.B *.> - = M B > A > ; > > 6 > 4 , # 5 = - -.= , > > > ; ; 4 =.%.> [.{.@X@X@X@X@X@X@X@X",
"@X@X@X@X@X@X@X@X@X@X@X@X@X@X@X@X_.[.T.[.W.e * : *.= , # # * %.V = %., %., > , 2 = , & = - , , : >.4 , - & , ).W.@X@X@X@X@X@X@X@X",
"@X@X@X@X@X@X@X@X@X@X@X@X@X@X@X@X[.@X[.@X@XT 0 g   a 2 , , > > > # , b ;.; & V > 4 = = >.; = = , = %.= 4 -.: /.).@X@X@X@X@X@X@X@X",
"@X@X@X@X@X@X@X@X@X@X@X@X@X@X@X@X@X~.@X@XR.L T . O . X ( i O j k U U _.@X/.)._.@X, -.> ; ; > > - = - - ; : 2 _.{.@X@X@X@X@X@X@X@X",
"@X@X@X@X@X@X@X@X@X@X@X@X@X@X@X@X^.W.W.@XG.k v X . t     i t ) X 9 I {.~.@X).I.[.[.).D.^ A , > = S U.R.R.@X~.).@X@X@X@X@X@X@X@X@X",
"@X@X@X@X@X@X@X@X@X@X@X@X@X@X@X@X{.).[.[.~.f f + . + O + d X i   I L @X{.[._.~.{.@X).{.~.~._.T.@X).[.^.@X[.U.^.[.@X@X@X@X@X@X@X@X",
"@X@X@X@X@X@X@X@X@X@X@X@X@X@X@X@X@X@XY.).@Xk l O . . . . p o . X U F [.XX@X@XXX{.@X@X@X@X@X@X@X@X@X@X@X@X@X@X@X@X@X@X@X@X@X@X@X@X",
"@X@X@X@X@X@X@X@X@X@X@X@X@X@X@X@X_.@X@X@X[.l f I . .   . . . . X k v R.{.[.@X@XI.@X@X@X@X@X@X@X@X@X@X@X@X@X@X@X@X@X@X@X@X@X@X@X@X",
"@X@X@X@X@X@X@X@X@X@X@X@X@X@X@X@XW.@X[.{.{.U 0 k . . X X . p   X U w )._.@X).@X).@X@X@X@X@X@X@X@X@X@X@X@X@X@X@X@X@X@X@X@X@X@X@X@X",
"@X@X@X@X@X@X@X@X@X@X@X@X@X@X@X@X[.XX).@X{.F f z p . . . . . . . h F @X_.@X@X[.R.@X@X@X@X@X@X@X@X@X@X@X@X@X@X@X@X@X@X@X@X@X@X@X@X",
"@X@X@X@X@X@X@X@X@X@X@X@X@X@X@X@X[.@X).).{.I b O z z . . . O X a U F ^.{.@X@X[.@X@X@X@X@X@X@X@X@X@X@X@X@X@X@X@X@X@X@X@X@X@X@X@X@X",
"@X@X@X@X@X@X@X@X@X@X@X@X@X@X@X@X_.{.[.XX).j l l z z + . . . . X j 0 ).@X{.[.@XXX@X@X@X@X@X@X@X@X@X@X@X@X@X@X@X@X@X@X@X@X@X@X@X@X",
"@X@X@X@X@X@X@X@X@X@X@X@X@X@X@X@X_.@X@X{.@XU 0 I z z . X X p . . O g T.).{.^.XX@X@X@X@X@X@X@X@X@X@X@X@X@X@X@X@X@X@X@X@X@X@X@X@X@X",
"@X@X@X@X@X@X@X@X@X@X@X@X@X@X@X@X[.@X/.{.Q.A.H L d p . O X p p . a f / T.).@X[.@X@X@X@X@X@X@X@X@X@X@X@X@X@X@X@X@X@X@X@X@X@X@X@X@X",
"[.T.@X@X[.U.[./.[.Q./.@X{.{.$ m _.@X).@X/./.0 I +     t . X . a i U G [.{.{.{.).T._._.{.{.@X[.@X@X@X{.).^.XX).W.).@XT.)._.[.@X@X",
"@X@X@XT.).E.@X@X{.{.).[.~.@X%.Q.@X@X@X[.@X@XI k z X . t X . a X z y v H.@X{.{.).@X@X{.[.@X{.@X@X_.@X[.I.).@X{.[.[.XX* Q.B [./.~.",
"W.{.{.).~.{.: R.T.@X[.@X~.{.3 & @X[.I.[.{.@XU k l . X . . O p X O g k F ).{.{.I.[.@X[.@X[.@X/.{.@X{.).{.{.@XW.E.@X@X* # /.@X).W.",
"L.@X~.{.V > 4 R._.@X~.H.@X& = @X@X)./.R.{./.I k k O + . + . p   O x I I H.[.{.[.).).I.).).@X@X{._.{.[.@X X).R.Y.@X; 4 ).U.[.@X[.",
"{._.XX[.{.& C = {.@X[.@XY.> 3 , @X_.~.Y.{.@XI 9 k O + . X . O X   o P k 0 [.).^.{.~.@X{.^./.@X{.@X).[.).@X@X@X6 = - ~.T.T.@X@X).",
"@X^.@XU.Y./.@X; & @X[.@X/.= = _.@XXX{.[.[.).U v f z X . X O p . . a t U Q F G R.@X@X XXX{.@X@X@X@X@X@XR.@X@XXX%.#., ).[.[.{.~.R.",
"{.@XL.~.@X^.W.5 @X).J.@X> @X6 @X@X@X@XH.T.G h 0 g p . i X X p . p   p l k l k G T.R.[.@X{.{.@X[.[.@X_.@X^._.S.S 2 {.E.W.).@X_.{.",
"~.[.@X@X@X@X; = XX* @X{.).@X> [.[.^.).F F b g I d . i p X X . . . + X f I g P q I T H.R.{. X@X@X).{.~.{.^.Y.3 {.).@X@X{.[._.E.{.",
"{.).@X~.@X[.@X@X= = @X@X@XXX{./.^.v h f v I k F X O O . O X   a + L q k v I k k 9 I c v @X)._.@X@XQ.T.[.{._.T.& ).[._.).).T.@XXX",
"@XL.@X).Y.E.@X@X, 2 R.).[.T.R._.F F k L U I I k l I w I b l 0 T F U k k P I T k U U h k I F /.XXXX@X@X@X@X& @X5 _.@X@X{.@X).E.@X",
"_.{.L.N.u.b.i._.> * @X@X{.@Xj l I k b R f I k U I f 9 W j I f k I F l E k H R.v U I I 0 U I Y b R.@X4 {.& : 3 > ~.@XXX_.@X[.{.Y.",
"4 = *.M.b.h.n.V.[., % Y.k G G g l T 9 H R.0 k l I l R 0 F G U U u Q f 9 ).{.[.[.k k k q J w k f @X%.~.1 {.=.= > _.@X/.[.R.XX).R.",
"> ; A c.r.N.B.e.c.M k.f.a.c.r I f I [._.W.[.G k v L q , - Q 0 c 0 G @X X[.{.@X[.T.Q I s I f F T = : - Y.[.- _.@X).@XT.E.@X~._.@X",
"{., , n.s.h.n.z.s.c.c.n.C.b.r.v I ^.~.{.{.{.).[.@XT.> - , 0 l f k [.{.).T.Y.Q.Y.[.@XR.I l x h U @X~.= [._.{.- > [.[.[.@XI._./.[.",
"T.V @ ~.t.h.z.b.d.N.x.C.r.u.C.E.[.).@X@XL. X{.W.> - % 3 U.@Xh Q k [.).@XR.@X@XB {._.@Xr k k l k ; :.: @X{.B @X@XI.@XI.W.C ~.@XR.",
").{.m.x.c.0.1.b.z.c.i.i.g.c.h.).W.@X).^.[.@XU.3 , ; ).- T.@XI I I T._.@X^.[.U.@X> , _.XXT 9 k I * 4 T.T.{.2 ).@X: @XT.: , {.E.).",
"g.c.c.N.x.9.1.3.1.> N.i.a.v.m.@X).@X).[.[.P.@X- - , ~.[.@X).8 G l R.[.L.E.~.).: 4 > {.E.@XF l J J U [.[.I.= > - ^.R.> @X, @XY.T.",
"m.u.z.d.0.4.9.9.9.0.h.h.N.G.[.).[.I.).).3 =.; 5 > % ).~.[.W.j U 0 > {.Y.[._.W.).).- ; T.@Xv f j 8 Q @XY.@X[._.{.@X{.=.{.I.[.@XXX",
"t.c.c.r.2.7.3.w.3.6.j.l.4 =.E.T.I.[.XXT.= _.= /., & @X).@X{.v Y 3 %.T.^.).@X{.~.@X& Z ^.Q.).s G R k W.[.[.@X[.@X~., K.: E.)._.).",
"_.{.i.b.1.5.w.1.8.i.c.c.N.2 = - @X@X@X).: 3 @XT.@X- 3 _._.@X9 k I 5 # Y.@X@X[./.).> > G._.XX@X@XW.^.@XE.@XI.5 I.B ^., [.@XU.[._.",
").{.u.m.c.<.1.q.5.f.n.B.h.& V {.@XT.%.% -.< L.@X@X,.= T.; @XF j I , = 3 W.[.@X[.@X5 > ~.* @X).XX^.[.@X@XT.XX: , _.).{.[.G.{.[.{.",
"R.@Xs.h.y.z.h.3.1.c.c.d.f.V , : & > @X{.~.%.).@X_._.%.@X3 E.W.).= : ).= ~._.XX).[.~.5 3 & @X).I.{.).W.{.: > %.- ).[.@XT.~.).[.W.",
"[.d.N.c.v.z.d.V.v.h.@X#.V % : =.: ).{.@X{.).E.Q.4 C 3 , ).@X X).{.= >.4 E._.{.[.Y.- [.&.W.> E.{.@X[.T.).@X{.$ @X~.@X@X@X@XT.).{.",
"~.c.N.N.f.m.V.^.[.@X[.@X[.).[.W.=.; > [.{.@X[./.~.> = #.@XU.[.{.[.= - {.T.E.{.{.4 - %.4 : {.@X).@X{.@X[.@XXX- = ; @XT.[.@X{.E.@X",
").~.N.x.t.k.s.Q.@X@X/._.~.E./.[.).N > - ~.T.E.@X_.= R.@X@X; U.{.{.> - ).[.{.@XT.; A U.{.T.W.@XT.).@XT.@X{.= ; > @X@X@X@X@X@X@X@X",
"@XF.@Xb.i.).).@X- : > @X~.).@X).[.I.B ).@X[.{.Q.> > E.W.L.{.: N {.@X^.).).@X{.@X{.^., ).).T.@X[./.[.[.@X- = > {.@X@X@X@X@X@X@X@X",
"@X{.{.[.).@X[.[.% - B - ~.@X).@X/.~.= I.S E.W.).~.& [.{.{.XX: , C W.@X X[.).{.).G.).= @X[.@X{.T.{.~.).E.{.4 - _.@X@X@X@X@X@X@X@X",
"{.[.I.{.@XI.XX@X[.~.7 - = 5 T.T.[.Q.[.@X@X).U.[.M 3 _.).^.@X> # @X[.).).{.{._.XX).E.5 ).@XE.@XT.R.@X@XG., 3 ).).@X@X@X@X@X@X@X@X",
"@X@X[.H.[.).W.@X/.{.> = > , * Q.^.).~.R.@X).).@X@XW.@XW.@XE.@X= * I.XX{.).E.[.@X{.D $ %.{.T.[.I.T.{.[.3 @X_.Q.XX@X@X@X@X@X@X@X@X",
"@X[.).{./.T.[.).[._.@XT.> @X-.2 @X@X[.).H.~.{.@X[._.@X_.~.~.E.5 > Q.{._.@X@X~.).R.= @X# [.).).{.E.T., [.[.@X_._.@X@X@X@X@X@X@X@X",
"W.{.@X~.~.[.@X{.T.@X~.~.[.@X).[.Y.[.@X).= ; ; [.@XW._.[.L.@X[.{.[.@X@X@X@XY.R.T.: &.~._.{.@X@X).@X{.T.{.~.^.@X[.@X@X@X@X@X@X@X@X",
"@XL.@X_.@X).@X)./.E.{.@XT.[.@X~.@X).~.^.{.@X@XR.).T.[.R.~.[.{._.@X/.).[./.[.@X> ).; @X[.~.R.{.[.Q.[.@XT.E.T.).{.@X@X@X@X@X@X@X@X"
};
